<?xml version="1.0" encoding="UTF-8"?>
<svg width="146px" height="139px" viewBox="0 0 146 139" version="1.1" xmlns="http://www.w3.org/2000/svg" xmlns:xlink="http://www.w3.org/1999/xlink">
    <title>Home button</title>
    <g id="Page-1" stroke="none" stroke-width="1" fill="none" fill-rule="evenodd">
        <g id="Thank-You" transform="translate(-636.000000, -1056.000000)">
            <g id="Home-button" transform="translate(636.000000, 1056.000000)">
                <path d="M85.5986983,6.20983244 C82.7927792,5.92072229 79.9675223,5.80624244 77.1383979,5.9051996 C64.1143697,6.46401652 51.9238019,10.98112 40.2534218,18.2360383 C28.5849754,25.3881188 17.452187,35.5574226 10.5215089,49.5336667 C17.3438951,35.0839805 27.9545622,24.2064538 39.6752207,17.0815381 C51.4345548,9.90035254 64.3444898,6.21759378 77.1383979,5.9051996 C80.6443464,5.72086763 84.1618976,5.85669119 87.6562434,6.25640051 C86.9658828,6.2505795 86.2948602,6.19625008 85.5986983,6.20983244 M143.20996,54.9239216 C142.759389,54.1109206 142.301082,53.5928508 141.844709,53.2688145 C141.941398,50.2806963 141.821504,47.292578 141.301316,44.3316244 C139.792966,35.7145899 135.718485,28.3141463 129.861056,22.3456711 C127.217575,18.9326191 123.262989,15.0849318 118.50975,12.0715891 C110.940924,7.02283345 101.797998,4.1472547 95.1747915,2.4960283 C76.958556,-2.76422406 56.0949717,0.313149692 37.9464187,11.5069512 C28.9021158,17.1397482 20.5539748,24.7943758 13.8186088,34.354414 C7.12965355,43.9280344 2.26425564,55.7311016 0.510314496,68.2947807 C-0.65188906,77.4512288 0.183505177,86.9045485 2.88886753,95.5584494 C5.57682584,104.229813 10.1289509,111.929069 15.6363648,118.056652 C26.7401465,130.482567 41.2087106,136.387011 55.3794721,138.445708 C75.034442,140.673214 95.6969129,136.222082 113.170576,124.457822 C121.839725,118.603827 129.572923,110.916213 135.38394,101.876185 C141.210429,92.880785 144.882682,82.3486383 145.803163,72.3345614 C146.609551,63.3682662 144.778258,57.6345718 143.20996,54.9239216" id="Fill-1" fill="#FDBA12"></path>
                <path d="M101.691808,61.6701429 C101.705886,72.0952364 101.719964,86.6419457 101.734043,97.0670391 L82.1363692,97.0670391 L82.1363692,79.2769 C82.1363692,77.5719072 81.2438061,76.0288015 79.8000782,74.9130342 C78.359166,73.7956316 76.3656812,73.1044772 74.1652456,73.1044772 C69.7622627,73.1044772 66.193418,75.8674595 66.193418,79.2769 L66.193418,97.0670391 L46.5957447,97.0670391 C46.5985603,86.5340209 46.601376,71.8788418 46.6041917,61.3463687" id="Stroke-1" stroke="#0E0078" stroke-width="3.10614525"></path>
                <path d="M39.606383,68.3351955 C50.8750628,56.9455244 62.1430354,45.5565611 73.4124225,34.1675978 C85.182514,45.5565611 96.9533127,56.9455244 108.723404,68.3351955" id="Stroke-3" stroke="#0E0078" stroke-width="3.10614525"></path>
            </g>
        </g>
    </g>
</svg>