<?xml version="1.0" encoding="UTF-8"?>
<svg width="511px" height="163px" viewBox="0 0 511 163" version="1.1" xmlns="http://www.w3.org/2000/svg" xmlns:xlink="http://www.w3.org/1999/xlink">
    <title>Group 4</title>
    <g id="Page-1" stroke="none" stroke-width="1" fill="none" fill-rule="evenodd">
        <g id="Title" transform="translate(-534.000000, -157.000000)" fill="#FDBA12">
            <g id="Group-4" transform="translate(534.000000, 157.000000)">
                <polygon id="Fill-62" points="510.842999 133.863806 470.162184 131.296842 470.471974 116.031661 419.553344 139.328301 456.766369 133.637052 453.496912 145.377986"></polygon>
                <polygon id="Fill-64" points="483.182099 29.4338028 438.524283 72.1668034 432.078251 58.6686632 404.628249 119.526676 433.232723 84.5115039 438.740644 95.3590824"></polygon>
                <polygon id="Fill-66" points="74.1070826 132.130969 17.8269571 148.061113 58.5842626 147.463357 59.4600881 162.706136 108.417809 135.527906 71.7582528 144.090461"></polygon>
                <polygon id="Fill-68" points="121.967918 0 129.104012 40.1343464 114.200225 43.4465924 148.887398 87.4057032 134.548554 52.5959754 146.729797 52.9937509"></polygon>
                <polygon id="Fill-70" points="0 7.10766909 58.7458778 66.8723459 40.4682776 75.8162844 123.640018 111.993092 75.6127596 73.8361492 90.2963606 66.2041049"></polygon>
            </g>
        </g>
    </g>
</svg>