<?xml version="1.0" encoding="UTF-8"?>
<svg width="304px" height="139px" viewBox="0 0 304 139" version="1.1" xmlns="http://www.w3.org/2000/svg" xmlns:xlink="http://www.w3.org/1999/xlink">
    <title>ORGO_US_TM_Promo_Tab120_RGB_WhtYel_Rev</title>
    <defs>
        <polygon id="path-1" points="0 0 77.0456445 0 77.0456445 79.4291213 0 79.4291213"></polygon>
    </defs>
    <g id="Page-1" stroke="none" stroke-width="1" fill="none" fill-rule="evenodd">
        <g id="Title" transform="translate(-1363.000000, -186.000000)">
            <g id="Group" transform="translate(1363.560006, 186.000000)">
                <g id="Group-6" transform="translate(0.000000, 0.000000)">
                    <path d="M61.8329853,31.0078732 C66.4327044,28.7211194 74.4526256,26.5288858 75.3565248,28.0142035 C77.3859295,31.3120853 65.7861544,51.5568858 52.3746094,51.4583942 C55.5064852,44.02148 58.7821269,37.010304 61.8329853,31.0078732 L61.8329853,31.0078732 Z M75.8227716,71.9279781 C72.01178,69.3052407 63.4747777,62.7531629 59.5025457,58.1939524 C70.3509248,52.6061397 80.1301929,42.8840603 83.6067894,36.7370691 C85.4860737,33.3788214 87.4837068,29.559887 81.9665856,24.7552417 C77.7457417,21.0292389 71.4414816,19.0856173 65.0506441,19.9132649 C59.0100875,20.6948439 57.3468494,20.4748262 51.6907279,24.2333948 C50.2173245,25.2254599 50.1664901,26.2111708 51.4746817,27.3771849 C52.5850956,28.3906958 51.3944586,30.3843574 50.1188329,33.1500666 C44.5858259,44.7260131 38.2744172,61.2972338 35.2569189,72.369602 C34.6651747,74.6714472 35.3720906,76.0042617 36.538899,77.455425 C37.7057073,78.9065884 38.5953094,79.5920585 39.7478206,80.2441686 C41.2847669,81.1139134 42.5024097,81.5785716 43.1171883,79.4522639 C44.7581863,74.2552406 47.4500268,66.7754349 49.5826888,61.2471937 C53.9925731,65.7500097 63.2007485,72.9478433 67.6130157,75.4029861 C70.3898449,76.9121324 71.1126466,76.9971211 73.4200518,76.2528737 C74.9617639,75.7866269 75.2143474,75.4776491 76.2620126,74.6301443 C77.2334263,73.8819254 77.2834664,72.8962146 75.8227716,71.9279781 L75.8227716,71.9279781 Z M194.706169,27.0642356 C194.931747,26.7703492 195.158913,26.4788457 195.397993,26.195285 C196.94606,24.3612751 195.038976,24.7274417 193.456755,24.9482536 C191.849117,25.1714484 186.486087,25.5693864 185.447954,27.0840928 C179.243774,36.1437363 169.52646,56.3257882 166.264321,68.3354156 C165.937075,69.5371727 165.833817,69.814379 165.73612,69.2115148 C163.96883,58.1939524 166.762339,46.5806745 169.683729,35.9809074 C171.089618,30.8799929 172.62577,25.814027 173.764778,20.6440095 C174.227054,18.5462961 164.110213,18.7297765 163.045074,22.4835794 C161.278578,28.7084108 160.05617,35.0770082 158.998973,41.4519599 C157.093477,52.9405347 155.81388,64.5085383 158.672521,76.0400047 C159.045836,77.5483567 159.569272,79.0289086 160.308753,80.3974661 C160.774206,81.2576794 161.794865,83.422113 162.840942,83.6858164 C164.566134,84.121086 165.834612,82.3101104 166.578859,81.0336904 C172.844199,70.2909515 176.58291,58.9088112 182.265243,47.8531231 C185.917378,40.745044 189.803826,33.4320387 194.706169,27.0642356 L194.706169,27.0642356 Z M228.376017,28.8402625 C230.706457,25.6694667 224.286231,25.5733579 220.325119,27.167493 C216.806425,28.5837076 211.722985,40.2668829 209.068476,44.1906633 C207.203489,46.9460467 203.650641,50.2637857 201.653008,50.7514783 C200.650617,50.9969131 200.192313,50.9206615 199.876981,49.952425 C199.606923,49.1239831 199.32654,47.9444662 199.575152,46.8070464 C200.938149,40.5687122 204.872255,33.142918 207.376644,27.9077689 C208.313109,25.9482616 199.747512,25.1245854 198.65219,27.6472426 C195.467891,34.9816937 192.305832,40.5147006 190.892,46.4416742 C189.589369,51.9031952 192.468661,59.1915776 198.4282,58.7197708 C203.4616,58.3210384 207.534707,53.3845415 208.197937,52.7427571 C208.197937,52.7427571 207.841302,55.4488947 206.83494,59.2662406 C205.566462,63.6054334 203.769784,67.0669384 201.057292,70.7770555 C198.91351,73.7103593 195.435325,78.3021355 191.408287,78.8740226 C188.699767,79.259252 185.760903,78.3482042 185.124679,75.8191927 C184.760101,74.3680294 184.945964,73.2385525 184.644929,71.7738863 C184.414586,70.6531466 182.632999,71.2996967 182.016631,71.7024005 C180.620274,72.6142425 180.978498,75.2274485 181.170715,76.5690002 C181.647288,79.8962706 183.556755,83.1766781 186.885614,84.6334014 C193.191463,87.3927563 200.922263,82.5031223 205.187587,78.3839472 C207.926291,75.7389697 209.922335,72.3203562 211.709482,69.0606001 C213.611801,65.5903579 215.264713,62.0001783 216.777831,58.3663128 C218.410886,54.4449153 220.887475,46.6029145 220.887475,46.6029145 L228.376017,28.8402625 Z M32.7835075,31.756092 C31.2465611,40.819707 22.9986794,66.6213431 13.7031325,69.7238302 C10.9787262,70.6332894 10.6554512,68.6173877 10.6697484,66.8620123 C10.7380571,58.4751302 21.074915,35.1056025 28.099594,28.2953812 C30.9669719,25.5161692 32.5889071,24.5304584 32.7660332,24.9498422 C33.2664343,25.2397571 33.127434,29.7266874 32.7835075,31.756092 L32.7835075,31.756092 Z M41.7128879,37.333579 C42.4761982,29.8362991 41.2482297,22.6630884 33.8359385,19.62891 C27.5213526,17.0450927 18.4315261,21.9069266 14.3639797,26.5408001 C7.12484315,34.7878875 1.46157306,50.4623576 0.0580669992,62.792083 C-0.596425925,68.5331932 4.40440836,74.571367 8.87863002,77.4792537 C15.8596231,82.016224 19.2893567,78.8382796 22.1201974,76.4546228 C27.6214329,71.8239265 33.163177,63.6689764 36.7199965,56.0438161 C39.3673568,50.3678374 41.1624467,42.7387057 41.7128879,37.333579 L41.7128879,37.333579 Z M133.871687,67.8095973 C133.36096,68.2734612 132.852616,68.6690164 132.349832,68.9859371 C130.047987,62.9159918 139.963872,41.2176451 144.890838,36.7386577 C147.186329,34.6512701 147.249872,35.5003634 147.353924,36.9626468 C147.801902,43.2327525 140.518285,61.7801606 133.871687,67.8095973 L133.871687,67.8095973 Z M146.036995,28.4804502 C135.712051,25.8990158 118.796904,52.2296474 123.733401,67.8207173 C124.630152,70.6531466 127.013809,73.8064681 131.843871,74.9319736 C136.689025,76.0614504 142.946422,70.3259002 145.721663,66.369554 C151.961586,57.4727394 155.64152,45.0230766 155.614662,40.4559233 C155.58036,34.582167 151.222898,29.7767275 146.036995,28.4804502 L146.036995,28.4804502 Z M122.628547,40.2660886 C120.80804,40.2660886 118.636458,40.5266149 116.777825,40.9348787 C113.66819,41.5520401 104.014419,43.6862907 102.582318,46.6489832 C101.39883,49.0969774 102.107335,52.2137616 105.991401,51.6005717 C106.588705,51.5060514 107.17886,51.333691 107.765839,51.1120848 C104.873044,56.1494563 102.091449,60.5942894 98.9802245,63.8461025 C96.8952198,66.0256275 95.3574791,67.0423155 93.7013896,66.6737661 C91.99526,66.294891 91.9190084,61.8842123 92.7482446,57.8770317 C95.6918742,43.6608735 107.914371,27.1047442 120.055056,23.2707183 C122.795348,22.4049449 124.935952,21.9958868 127.371238,22.3072476 C128.737413,22.4811965 129.304534,22.9259975 129.471334,21.7599835 C129.519786,21.4168512 129.445123,20.3588602 128.007462,19.1078574 C125.77472,17.1642358 119.742901,15.8481014 110.573645,18.8457425 C94.2407108,24.1849433 80.6560112,43.571119 79.6202603,61.9612582 C79.2310594,68.8659997 81.0317092,72.7937515 84.6091803,75.1448426 C88.4479719,77.6674998 92.7434789,76.5030743 95.4416736,74.7659675 C98.3050801,72.9224261 99.8825352,70.9708616 102.485415,67.6324712 C105.282896,64.0446744 107.177272,60.8921472 108.42192,58.4902217 C106.510865,63.5553933 103.961202,71.2472737 103.42744,74.9685108 C103.089868,77.3235733 102.908771,79.4729154 104.573597,82.0734127 C105.892115,84.1337946 111.575242,88.8169139 111.606219,86.6580404 C111.905666,65.5172835 120.034404,49.6823673 124.063825,43.1747695 C125.687348,40.554415 124.218711,40.2660886 122.628547,40.2660886 L122.628547,40.2660886 Z M263.459698,64.4759725 L263.85287,64.4759725 C264.411254,64.4759725 264.758358,64.4545268 264.893387,64.4116352 C265.027621,64.3679494 265.134056,64.2932864 265.21269,64.1860576 C265.29053,64.0780345 265.330245,63.9557142 265.330245,63.8190967 C265.330245,63.6864507 265.292119,63.5681019 265.215867,63.4648445 C265.139616,63.3607928 265.030798,63.2869241 264.890209,63.242444 C264.749621,63.1971696 264.404106,63.1749295 263.85287,63.1749295 L263.459698,63.1749295 L263.459698,64.4759725 Z M262.492255,67.1836987 L262.492255,62.4179735 L263.459698,62.4179735 C264.36598,62.4179735 264.874324,62.421945 264.983935,62.4298878 C265.304033,62.4576879 265.55344,62.5204366 265.73136,62.6205168 C265.90928,62.7198028 266.057812,62.872306 266.176955,63.0772322 C266.296098,63.2829526 266.35567,63.5101189 266.35567,63.7603195 C266.35567,64.104246 266.243675,64.3989266 266.018892,64.6427729 C265.794109,64.8874135 265.477982,65.0383281 265.072101,65.0971054 C265.216662,65.1519112 265.327862,65.2114828 265.405702,65.2758201 C265.484337,65.3409516 265.591565,65.4624776 265.728977,65.6419866 C265.763926,65.6896439 265.880686,65.8826557 266.080052,66.2226108 L266.643202,67.1836987 L265.447005,67.1836987 L265.048273,66.4100627 C264.779009,65.8905986 264.556609,65.5633521 264.380277,65.4283233 C264.204739,65.2940887 263.981545,65.2265742 263.712281,65.2265742 L263.459698,65.2265742 L263.459698,67.1836987 L262.492255,67.1836987 Z M264.357243,60.9429816 C263.701161,60.9429816 263.07288,61.1073991 262.472398,61.4346456 C261.870328,61.7626863 261.396933,62.2336988 261.050624,62.8468888 C260.704314,63.4608731 260.53116,64.1034517 260.53116,64.7754189 C260.53116,65.4434147 260.700343,66.0804333 261.037915,66.6856804 C261.376281,67.2917218 261.847294,67.7643229 262.453335,68.104278 C263.058582,68.444233 263.693218,68.6142105 264.357243,68.6142105 C265.024444,68.6142105 265.660668,68.444233 266.264327,68.104278 C266.867191,67.7643229 267.338998,67.2917218 267.679747,66.6856804 C268.018908,66.0804333 268.18968,65.4434147 268.18968,64.7754189 C268.18968,64.1034517 268.016525,63.4608731 267.670216,62.8468888 C267.323906,62.2336988 266.848923,61.7626863 266.245264,61.4346456 C265.6424,61.1073991 265.01253,60.9429816 264.357243,60.9429816 L264.357243,60.9429816 Z M264.350888,60.0096937 C265.16821,60.0096937 265.951378,60.2146199 266.702774,60.6228837 C267.453375,61.0311475 268.043531,61.6173317 268.472446,62.380642 C268.902156,63.143158 269.116613,63.9422113 269.116613,64.7754189 C269.116613,65.6054494 268.906127,66.3965598 268.485155,67.1495443 C268.064182,67.9017346 267.477204,68.4887131 266.725014,68.9096855 C265.971235,69.3314522 265.180124,69.5411441 264.350888,69.5411441 C263.520858,69.5411441 262.730542,69.3314522 261.976763,68.9096855 C261.224573,68.4887131 260.637594,67.9017346 260.216622,67.1495443 C259.795649,66.3965598 259.585163,65.6054494 259.585163,64.7754189 C259.585163,63.9422113 259.799621,63.143158 260.22933,62.380642 C260.658246,61.6173317 261.248401,61.0311475 261.999003,60.6228837 C262.749605,60.2146199 263.533566,60.0096937 264.350888,60.0096937 L264.350888,60.0096937 Z M244.851924,49.9810194 L242.77645,53.2789012 C243.2006,54.2828806 243.687498,55.2654143 244.254619,56.2177651 C247.162506,61.0978677 251.593836,64.9144192 256.135572,68.2234211 C256.647093,68.5967362 257.014849,68.9001541 257.109369,69.433121 C255.438188,77.3053047 251.446893,77.8358888 251.076755,77.560271 C250.952846,77.4681336 250.836086,77.3648763 250.705823,77.2822704 C245.12913,73.7770795 240.04013,69.0137372 236.58895,63.1804896 C233.446749,68.3528899 230.587314,73.4307701 228.205246,78.2735412 C227.519775,79.5706127 226.959008,80.4363861 225.63096,79.1949147 C223.711961,77.4736937 221.120995,74.0177486 223.427606,69.2631435 C225.752486,64.5228355 228.959024,59.062903 232.716799,53.3726271 C232.227518,51.1533878 231.953488,48.8864912 231.882797,46.6148288 C231.776362,43.1993925 231.766831,39.7783961 231.990026,36.3573997 C232.238638,32.5464081 232.903456,28.7290622 234.719992,25.3120373 C234.907444,24.9601679 235.22913,24.7059959 235.612771,24.5947956 C236.480133,24.3430065 238.158463,23.7679423 239.097311,23.4541988 C239.370545,23.3628557 239.609626,23.4478445 239.754186,23.6964564 C240.059987,24.2222748 240.000415,25.0173566 239.941638,25.5979808 C239.367368,31.3549768 239.52146,36.9618525 240.233936,42.6680141 L242.785982,39.1111945 C248.404772,31.7251148 254.465186,24.5399898 260.132427,18.5756847 C260.985492,17.6320712 261.95214,17.1364357 262.47637,18.5907762 C263.636029,21.6297203 263.377886,23.6901021 261.114961,27.0785328 C257.947342,31.8228122 250.53664,41.6211431 244.851924,49.9810194 L244.851924,49.9810194 Z M169.203185,135.924519 C172.825136,130.428843 176.076155,123.215918 176.076155,113.302416 C176.076155,104.153017 173.428,96.7033948 169.203185,90.0718882 L174.341431,90.0718882 C177.760045,95.040951 181.085726,102.958409 181.085726,113.356427 C181.085726,123.593205 177.544793,131.133376 174.341431,135.924519 L169.203185,135.924519 Z M155.838503,100.854341 C158.172914,105.960022 159.410414,108.510479 160.088736,109.995797 L160.141953,109.995797 C160.944183,108.128427 162.509724,104.997345 164.456523,100.854341 L170.366022,100.854341 L163.229349,113.939434 L170.398588,128.520965 L164.192025,128.520965 C161.917186,123.365244 160.610583,120.503426 159.937821,118.91644 L159.883809,118.91644 C159.243614,120.369192 157.473147,124.222281 155.500137,128.520965 L149.551717,128.520965 L156.608168,114.714659 L149.708192,100.854341 L155.838503,100.854341 Z M141.957534,96.3674111 L147.538198,96.3674111 L147.538198,90.2577514 L141.957534,90.2577514 L141.957534,96.3674111 Z M141.919408,128.520965 L147.500867,128.520965 L147.500867,100.854341 L141.919408,100.854341 L141.919408,128.520965 Z M132.540461,128.52017 L138.121125,128.52017 L138.121125,90.2577514 L132.540461,90.2577514 L132.540461,128.52017 Z M115.484725,114.531178 C115.484725,121.003827 116.774648,124.339835 120.008987,124.339835 C123.124183,124.339835 124.38154,121.009387 124.38154,114.574864 C124.38154,108.133987 123.118623,105.12602 119.970861,105.12602 C116.904117,105.12602 115.484725,108.075209 115.484725,114.531178 L115.484725,114.531178 Z M130.032896,114.42395 C130.032896,124.360487 126.484813,129.042017 119.873958,129.042017 C113.279783,129.042017 109.834164,124.559853 109.834164,114.553418 C109.834164,104.821808 113.828636,100.386506 120.154342,100.386506 C126.587276,100.386506 130.032896,105.155408 130.032896,114.42395 L130.032896,114.42395 Z M93.047691,114.859219 C93.047691,120.902159 94.5806659,123.613062 97.4528096,123.613062 C101.031075,123.613062 101.880168,120.149174 101.880168,114.056989 C101.880168,108.57005 101.418687,105.180031 97.6950673,105.180031 C94.6878947,105.180031 93.047691,108.311113 93.047691,114.859219 L93.047691,114.859219 Z M107.294032,126.44152 C107.294032,134.096863 105.193936,139 96.9738542,139 C89.3455168,139 87.7196102,134.365332 87.5575756,131.124639 L93.133474,131.124639 C93.2414971,132.194544 93.7403097,134.411401 97.1787804,134.411401 C101.035841,134.411401 101.788825,131.532903 101.788825,126.44152 L101.788825,124.765573 C100.760223,127.208007 98.5648122,128.37005 95.6966399,128.37005 C89.9094609,128.37005 87.3208779,123.346181 87.3208779,115.010134 C87.3208779,105.377015 90.8244802,100.386506 96.2883841,100.386506 C99.9643468,100.386506 101.325756,102.141087 101.788825,103.539033 C101.810271,102.576357 101.93418,101.489771 102.025523,100.854341 L107.386169,100.854341 C107.332158,102.469128 107.294032,105.252311 107.294032,109.068863 L107.294032,126.44152 Z M84.799015,120.580472 C84.799015,124.424824 84.799015,127.13255 84.8522322,128.520965 L79.5297115,128.520965 C79.3843569,127.691728 79.3303453,126.496326 79.2930138,125.2763 C78.1460626,127.886329 76.047555,129.004686 72.9959023,129.004686 C69.301671,129.004686 66.0792465,127.276316 66.0792465,120.721061 L66.0792465,100.854341 L71.6765907,100.854341 L71.6765907,119.450201 C71.6765907,122.451814 72.3858895,124.18892 74.989564,124.18892 C77.6258043,124.18892 79.2016708,122.699631 79.2016708,117.771871 L79.2016708,100.854341 L84.799015,100.854341 L84.799015,120.580472 Z M57.2253234,128.52017 L62.8067819,128.52017 L62.8067819,90.2577514 L57.2253234,90.2577514 L57.2253234,128.52017 Z M49.0846705,111.919561 C49.0846705,108.532719 48.5366121,105.013231 44.9321353,105.013231 C40.8010458,105.013231 40.5691139,109.955288 40.5373424,111.919561 L49.0846705,111.919561 Z M40.4459993,116.040325 C40.4459993,120.192066 41.041715,124.377961 44.867798,124.377961 C48.4389147,124.377961 48.8964243,121.199222 49.0203332,120.295323 L54.3905112,120.295323 C54.2991681,121.113439 53.6264066,129.042017 44.7915464,129.042017 C36.0980694,129.042017 34.8859866,121.528851 34.8859866,114.56851 C34.8859866,105.80037 38.105234,100.386506 44.948021,100.386506 C52.7217131,100.386506 54.6057631,106.387348 54.6057631,113.50337 C54.6057631,114.323075 54.5684316,115.497032 54.51442,116.040325 L40.4459993,116.040325 Z M21.7834195,110.246791 C21.7834195,105.746358 21.7834195,102.829734 21.7302022,100.854341 L27.0686087,100.854341 C27.1226203,101.41352 27.2139634,102.608923 27.2139634,105.536666 C28.3005487,102.334099 30.8200287,100.418278 34.4856657,100.402392 L34.4856657,106.635166 C29.8835637,106.618486 27.364878,108.504125 27.364878,113.688439 L27.364878,128.520965 L21.7834195,128.520965 L21.7834195,110.246791 Z M21.4029558,90.0718882 C17.7810047,95.5683579 14.5291915,102.780489 14.5291915,112.693991 C14.5291915,121.843389 17.1781404,129.293806 21.4029558,135.924519 L16.2639155,135.924519 C12.8460962,130.955456 9.51962005,123.038792 9.51962005,112.640774 C9.51962005,102.403996 13.0613481,94.8630305 16.2639155,90.0718882 L21.4029558,90.0718882 Z M241.84634,102.786843 C241.84634,105.472329 242.984554,107.023573 244.820946,107.023573 C247.033832,107.023573 247.810645,105.644689 247.810645,102.73442 C247.810645,99.8408305 247.169655,98.491336 244.918644,98.491336 C242.999645,98.491336 241.84634,100.095797 241.84634,102.786843 L241.84634,102.786843 Z M249.606529,107.769409 C249.606529,111.377857 248.158543,113.417587 244.643026,113.417587 C241.26095,113.417587 240.237907,111.605023 240.071107,109.956876 L241.944831,109.956876 C242.200592,111.243622 243.23952,111.870315 244.715306,111.870315 C247.199043,111.870315 247.762987,110.245203 247.762987,107.718574 L247.762987,106.768606 C247.170449,108.062501 246.153761,108.671719 244.363437,108.671719 C241.642208,108.671719 239.880478,106.398468 239.880478,102.810672 C239.880478,99.0584573 241.964689,96.8431894 244.628729,96.8431894 C246.45559,96.8431894 247.406352,97.5937911 247.710564,98.4881588 C247.710564,97.9949063 247.771725,97.3356476 247.801908,97.0711499 L249.651803,97.0711499 C249.629563,97.6200026 249.606529,98.8495597 249.606529,100.427015 L249.606529,107.769409 Z M222.57613,100.673244 C222.57613,98.6152448 222.55389,97.5898196 222.530856,97.0711499 L224.379957,97.0711499 C224.419671,97.3936306 224.457003,98.3157984 224.449854,98.7129422 C224.985998,97.7176999 225.991566,96.8431894 227.69293,96.8431894 C229.225905,96.8431894 230.213204,97.5318366 230.65324,98.8376453 C231.163967,97.792363 232.323626,96.8431894 234.082179,96.8431894 C235.84232,96.8431894 237.549244,97.7470886 237.549244,100.790798 L237.549244,108.647891 L235.683463,108.647891 L235.683463,101.118839 C235.683463,99.7089788 235.229925,98.491336 233.569864,98.491336 C231.765242,98.491336 231.011463,99.994128 231.011463,101.847995 L231.011463,108.647891 L229.159979,108.647891 L229.159979,101.012405 C229.159979,99.5882471 228.577766,98.4992789 227.082123,98.4992789 C225.449862,98.4992789 224.449854,99.7463103 224.449854,102.04339 L224.449854,108.647891 L222.57613,108.647891 L222.57613,100.673244 Z M210.060541,100.66133 C210.060541,104.378595 210.716623,107.315076 213.075657,107.315076 C215.532388,107.315076 216.038349,104.367475 216.038349,100.697867 C216.038349,97.4674994 215.379885,94.7049673 213.091543,94.7049673 C210.65864,94.7049673 210.060541,97.4817965 210.060541,100.66133 L210.060541,100.66133 Z M217.973234,100.658947 C217.973234,104.783682 217.051066,108.876645 213.060565,108.876645 C208.928682,108.876645 208.110565,104.625619 208.110565,100.693895 C208.110565,96.7439034 209.422728,93.1584895 213.085188,93.1584895 C216.88506,93.1584895 217.973234,96.629526 217.973234,100.658947 L217.973234,100.658947 Z M196.565596,108.647891 L196.565596,108.533513 C196.565596,106.903635 197.432958,104.535864 200.890492,101.720909 C203.091463,99.8956363 203.958824,99.1887204 203.958824,97.4182535 C203.958824,96.0401647 203.215371,94.7351503 201.381361,94.7351503 C199.525906,94.7351503 198.734001,95.9210215 198.516366,97.7653572 L196.698242,97.7653572 C196.848363,95.3324545 198.186737,93.1584895 201.451259,93.1584895 C204.475111,93.1584895 205.9088,95.1068768 205.9088,97.3745677 C205.9088,99.6088985 204.824598,100.729638 202.15738,102.885335 C200.308279,104.397658 199.233608,105.831347 198.845996,107.006098 L206.370281,107.006098 L206.107372,108.647891 L196.565596,108.647891 Z M191.545699,108.647891 L191.545699,95.607278 C191.000818,95.9464387 189.522649,96.3872683 188.899927,96.5032343 L188.899927,95.0060023 C190.05641,94.745476 191.322504,94.0727145 192.081049,93.3125813 L193.427366,93.3125813 L193.427366,108.647891 L191.545699,108.647891 Z M243.619984,125.17622 C243.836824,126.510623 244.822535,127.24931 246.222864,127.24931 C247.823353,127.24931 248.453223,126.399423 248.453223,125.411329 C248.453223,124.364458 247.716919,123.817988 245.752646,123.28661 C242.931336,122.520917 242.186295,121.490726 242.186295,119.940276 C242.186295,118.412067 243.231577,116.715469 246.068772,116.715469 C248.860693,116.715469 249.950455,118.262741 250.102164,120.043534 L248.244326,120.043534 C248.058462,119.104686 247.568387,118.191255 245.982989,118.191255 C244.67718,118.191255 244.072728,118.82748 244.072728,119.783008 C244.072728,120.648781 244.507997,121.114233 246.461944,121.628932 C249.41034,122.414482 250.347599,123.417667 250.347599,125.25406 C250.347599,127.403402 248.645441,128.725891 246.160115,128.725891 C243.765338,128.725891 241.96866,127.594031 241.747848,125.17622 L243.619984,125.17622 Z M234.553192,116.94343 L236.410236,116.94343 L236.410236,113.578828 L238.291903,113.578828 L238.291903,116.94343 L240.627108,116.94343 L240.627108,118.499439 L238.291903,118.499439 L238.291903,125.743341 C238.291903,126.711578 238.533366,127.119047 239.52146,127.119047 C239.839969,127.119047 240.166422,127.089658 240.419799,127.044384 L240.419799,128.465364 C239.971821,128.626605 239.31018,128.663936 238.905887,128.663936 C237.221998,128.663936 236.410236,128.022152 236.410236,126.100771 L236.410236,118.499439 L234.553192,118.499439 L234.553192,116.94343 Z M231.58335,121.707566 C231.522985,119.739322 230.734257,118.25321 228.725504,118.25321 C226.43319,118.25321 225.889103,120.328683 225.785052,121.707566 L231.58335,121.707566 Z M225.738983,123.095981 C225.723891,125.412918 226.711985,127.161939 228.754893,127.161939 C230.617497,127.161939 231.190178,125.855336 231.408607,125.249294 L233.274389,125.249294 C232.893925,126.693309 231.765242,128.740982 228.664344,128.740982 C225.043187,128.740982 223.811247,125.890284 223.811247,122.69566 C223.811247,119.853699 225.207604,116.715469 228.770778,116.715469 C232.399084,116.715469 233.455486,119.54631 233.455486,122.217499 C233.455486,122.281836 233.447543,123.022906 233.4396,123.095981 L225.738983,123.095981 Z M219.776266,128.520965 L221.665876,128.520965 L221.665876,111.893349 L219.776266,111.893349 L219.776266,128.520965 Z M215.744463,122.451019 C215.744463,120.005408 214.773049,118.363616 212.77621,118.363616 C210.487074,118.363616 209.666575,119.845756 209.666575,122.59002 C209.666575,125.412918 210.313125,127.09363 212.715845,127.09363 C214.792906,127.09363 215.744463,125.169866 215.744463,122.451019 L215.744463,122.451019 Z M207.886576,111.893349 L209.775392,111.893349 L209.775392,118.551862 C210.278176,117.622545 211.344904,116.715469 213.245634,116.715469 C216.055824,116.715469 217.68729,119.026051 217.68729,122.373179 C217.68729,125.892667 216.202767,128.725891 212.892176,128.725891 C211.113767,128.725891 210.192393,127.959403 209.759506,127.049944 C209.766655,127.517779 209.728529,128.037244 209.68246,128.520965 L207.840508,128.520965 C207.863542,127.876003 207.886576,126.664715 207.886576,125.24294 L207.886576,111.893349 Z M203.468749,122.909323 L201.635533,122.909323 C198.830904,122.909323 198.303497,124.047537 198.303497,125.102351 C198.303497,126.231034 198.988173,127.165116 200.445691,127.165116 C202.719736,127.165116 203.468749,125.632141 203.468749,123.145227 L203.468749,122.909323 Z M205.27893,125.952239 C205.27893,126.751292 205.354388,127.910952 205.452879,128.520965 L203.731658,128.520965 C203.655407,128.119055 203.572006,127.491568 203.564064,126.731435 C203.120851,127.895066 201.95166,128.725891 200.063638,128.725891 C197.236769,128.725891 196.369407,126.818806 196.369407,125.213551 C196.369407,123.471679 197.494913,121.538383 201.640299,121.538383 L203.413149,121.538383 L203.413149,120.414466 C203.413149,119.315966 203.101788,118.181724 201.138309,118.181724 C199.453626,118.181724 198.870619,118.95536 198.675224,120.232574 L196.826122,120.232574 C196.999277,118.295307 198.118428,116.714675 201.198675,116.715469 C203.618869,116.715469 205.27893,117.689266 205.27893,120.325506 L205.27893,125.952239 Z M188.899927,116.94343 L190.756971,116.94343 L190.756971,113.578828 L192.638639,113.578828 L192.638639,116.94343 L194.973844,116.94343 L194.973844,118.499439 L192.638639,118.499439 L192.638639,125.743341 C192.638639,126.711578 192.880102,127.119047 193.868196,127.119047 C194.186705,127.119047 194.512363,127.089658 194.766535,127.044384 L194.766535,128.465364 C194.318557,128.626605 193.656915,128.663936 193.252623,128.663936 C191.568733,128.663936 190.756971,128.022152 190.756971,126.100771 L190.756971,118.499439 L188.899927,118.499439 L188.899927,116.94343 Z" id="Fill-1" fill="#FFFFFF"></path>
                    <g id="Group-5" transform="translate(226.371561, 0.000000)">
                        <mask id="mask-2" fill="white">
                            <use xlink:href="#path-1"></use>
                        </mask>
                        <g id="Clip-4"></g>
                        <path d="M58.027939,23.6681004 C62.8460871,33.0653161 62.784927,44.8461888 57.8690815,54.1917759 C57.24636,55.3752643 56.5267355,56.6580386 56.784879,57.9725845 C57.5346864,57.5476407 58.2844938,57.1234911 59.0343013,56.6985473 C55.3646929,60.6930193 51.8523534,64.8455545 47.9023615,68.5675859 C47.2669315,69.1680672 46.6132329,69.7486914 45.9650942,70.3356699 C45.1835153,71.0036657 45.2732698,72.6534009 46.0540544,72.4889834 C46.8674049,72.3182116 44.3447477,75.6446878 39.7212,77.4310404 C36.7315017,78.5851402 36.8959192,80.2626755 40.4241444,78.9497182 C43.7331463,77.7185725 46.9079135,76.120466 49.8682232,74.1855816 C52.7578412,71.9726965 56.2574721,70.4873788 53.807095,73.1958993 C54.9000347,73.4460999 55.9476999,72.6954982 56.8087076,71.9711079 C64.4441936,65.5492933 71.0193058,57.5619379 74.500668,48.1655164 C77.9820303,38.7690949 78.1067334,27.8627328 73.5316373,18.9563868 C68.362414,8.89673519 57.7014868,2.42567469 46.6179986,0.612316257 C35.5345104,-1.20183646 24.1055071,1.19214615 13.7027234,5.4566759 C10.6343906,6.71482735 7.46359481,8.27798521 5.68915647,11.1000888 L8.65026038,10.2168411 C5.74555088,11.8260676 3.13472777,13.9730268 0.986180005,16.5195126 C0.326127068,17.3010915 -0.331543007,18.3304882 0.186332462,19.2955475 C0.488956011,19.860286 1.11088315,20.1684695 1.74710746,20.1915039 C2.88055576,20.230424 3.80669502,19.5679882 4.70185707,18.9524153 C11.6868216,14.1493586 19.779023,10.9944486 28.1500192,9.813343 C27.541595,9.92136611 27.0284852,10.4471845 26.9307879,11.0627573 C33.6449004,10.575859 40.5710876,11.2517977 46.6831302,14.1001128 C51.9151021,16.5377812 56.4917869,20.7101736 58.8905352,25.9508827 L58.027939,23.6681004 Z" id="Fill-3" fill="#FDBA12" mask="url(#mask-2)"></path>
                    </g>
                </g>
            </g>
        </g>
    </g>
</svg>