<?xml version="1.0" encoding="UTF-8"?>
<svg width="144px" height="62px" viewBox="0 0 144 62" version="1.1" xmlns="http://www.w3.org/2000/svg" xmlns:xlink="http://www.w3.org/1999/xlink">
    <title>Group</title>
    <g id="Symbols" stroke="none" stroke-width="1" fill="none" fill-rule="evenodd">
        <g id="Mandatory-ISI-Popup" transform="translate(-292.000000, -1266.000000)" fill-rule="nonzero">
            <g id="MyovantPfizer_Logo_Hori_Color_RGB" transform="translate(51.000000, 1235.000000)">
                <g id="Group" transform="translate(15.991667, 31.991667)">
                    <g transform="translate(225.705556, 0.000000)">
                        <g transform="translate(85.694444, 49.619444)" fill="#0000C9">
                            <path d="M7.51666667,4.49722222 C7.51666667,5.325 7.38055556,6.04722222 7.10833333,6.66111111 C6.83611111,7.27777778 6.41944444,7.75555556 5.86111111,8.1 C5.30277778,8.44444444 4.6,8.61388889 3.75833333,8.61388889 C2.9,8.61388889 2.19444444,8.44166667 1.64444444,8.1 C1.09166667,7.75833333 0.680555556,7.275 0.408333333,6.65555556 C0.136111111,6.03611111 0,5.31388889 0,4.48611111 C0,3.66666667 0.136111111,2.94722222 0.408333333,2.33333333 C0.680555556,1.71666667 1.09444444,1.24166667 1.65,0.9 C2.20555556,0.561111111 2.91111111,0.391666667 3.76944444,0.391666667 C4.61111111,0.391666667 5.31111111,0.561111111 5.86666667,0.9 C6.42222222,1.23888889 6.83611111,1.71666667 7.10833333,2.33333333 C7.38055556,2.95 7.51666667,3.66944444 7.51666667,4.49722222 Z M1.50833333,4.49722222 C1.50833333,5.4 1.68888889,6.10833333 2.05,6.62222222 C2.41111111,7.13611111 2.98055556,7.39444444 3.75555556,7.39444444 C4.55277778,7.39444444 5.12777778,7.13611111 5.47777778,6.62222222 C5.82777778,6.10833333 6.00277778,5.4 6.00277778,4.49722222 C6.00277778,3.59444444 5.82777778,2.88611111 5.47777778,2.37222222 C5.12777778,1.85833333 4.55555556,1.6 3.76666667,1.6 C2.98333333,1.6 2.41111111,1.85833333 2.05,2.37222222 C1.68888889,2.88611111 1.50833333,3.59722222 1.50833333,4.49722222 Z" id="Shape"></path>
                            <path d="M12.1638889,2.32777778 C12.8416667,2.32777778 13.375,2.50277778 13.7583333,2.85277778 C14.1416667,3.20277778 14.3333333,3.76944444 14.3333333,4.55277778 L14.3333333,8.50277778 L12.925,8.50277778 L12.925,4.83333333 C12.925,4.37777778 12.8361111,4.03611111 12.6555556,3.80833333 C12.4777778,3.58055556 12.1944444,3.46666667 11.8055556,3.46666667 C11.2388889,3.46666667 10.85,3.64444444 10.6416667,4.00277778 C10.4333333,4.36111111 10.3277778,4.87222222 10.3277778,5.53611111 L10.3277778,8.5 L8.91944444,8.5 L8.91944444,2.43611111 L10.0055556,2.43611111 L10.2083333,3.23055556 L10.2861111,3.23055556 C10.4805556,2.91666667 10.7472222,2.68888889 11.0861111,2.54166667 C11.4222222,2.4 11.7833333,2.32777778 12.1638889,2.32777778 Z" id="Path"></path>
                            <path d="M18.3555556,8.61666667 C17.4888889,8.61666667 16.8055556,8.36666667 16.3027778,7.86666667 C15.8,7.36666667 15.5472222,6.58055556 15.5472222,5.50555556 C15.5472222,4.76111111 15.6722222,4.15277778 15.9222222,3.68888889 C16.1722222,3.22222222 16.5166667,2.88055556 16.9583333,2.65833333 C17.3972222,2.43888889 17.9027778,2.32777778 18.4694444,2.32777778 C18.8416667,2.32777778 19.1805556,2.36388889 19.4833333,2.43888889 C19.7861111,2.51388889 20.0416667,2.60277778 20.25,2.70833333 L19.8361111,3.81666667 C19.5972222,3.72777778 19.3611111,3.65 19.1305556,3.58611111 C18.9,3.52222222 18.6805556,3.49166667 18.4694444,3.49166667 C17.4861111,3.49166667 16.9916667,4.15833333 16.9916667,5.49444444 C16.9916667,6.14444444 17.1166667,6.63333333 17.3666667,6.96111111 C17.6166667,7.28888889 17.9777778,7.45277778 18.4472222,7.45277778 C18.7833333,7.45277778 19.0833333,7.41111111 19.3472222,7.33055556 C19.6111111,7.24722222 19.8611111,7.13611111 20.0916667,6.99444444 L20.0916667,8.21388889 C19.8611111,8.35555556 19.6111111,8.45833333 19.3416667,8.52222222 C19.0722222,8.58333333 18.7444444,8.61666667 18.3555556,8.61666667 Z" id="Path"></path>
                            <path d="M26.6666667,5.46111111 C26.6666667,6.46944444 26.4055556,7.24444444 25.8833333,7.79444444 C25.3611111,8.34166667 24.6527778,8.61666667 23.7583333,8.61666667 C23.2055556,8.61666667 22.7138889,8.49444444 22.2805556,8.24722222 C21.8472222,8 21.5083333,7.64166667 21.2638889,7.17222222 C21.0166667,6.70277778 20.8944444,6.13055556 20.8944444,5.46111111 C20.8944444,4.45555556 21.1527778,3.68055556 21.6722222,3.13888889 C22.1916667,2.59722222 22.8972222,2.32777778 23.7916667,2.32777778 C24.35,2.32777778 24.8472222,2.45 25.2805556,2.69166667 C25.7138889,2.93333333 26.0527778,3.28888889 26.2972222,3.75555556 C26.5444444,4.21944444 26.6666667,4.78888889 26.6666667,5.46111111 Z M22.3361111,5.46111111 C22.3361111,6.10277778 22.45,6.6 22.6777778,6.95 C22.9055556,7.3 23.2722222,7.475 23.7805556,7.475 C24.2805556,7.475 24.6472222,7.3 24.8777778,6.95 C25.1083333,6.6 25.225,6.10277778 25.225,5.46111111 C25.225,4.81944444 25.1083333,4.32777778 24.8777778,3.98333333 C24.6472222,3.64166667 24.2777778,3.46944444 23.7694444,3.46944444 C23.2611111,3.46944444 22.8972222,3.64166667 22.6722222,3.98333333 C22.45,4.32777778 22.3361111,4.81944444 22.3361111,5.46111111 Z" id="Shape"></path>
                            <polygon id="Path" points="29.3416667 8.50277778 27.9333333 8.50277778 27.9333333 -7.89491929e-15 29.3416667 -7.89491929e-15"></polygon>
                            <path d="M36.3805556,5.46111111 C36.3805556,6.46944444 36.1194444,7.24444444 35.5972222,7.79444444 C35.075,8.34166667 34.3666667,8.61666667 33.4722222,8.61666667 C32.9194444,8.61666667 32.4277778,8.49444444 31.9944444,8.24722222 C31.5611111,8 31.2222222,7.64166667 30.9777778,7.17222222 C30.7305556,6.70277778 30.6083333,6.13055556 30.6083333,5.46111111 C30.6083333,4.45555556 30.8666667,3.68055556 31.3861111,3.13888889 C31.9055556,2.59722222 32.6111111,2.32777778 33.5055556,2.32777778 C34.0638889,2.32777778 34.5611111,2.45 34.9944444,2.69166667 C35.4277778,2.93333333 35.7666667,3.28888889 36.0138889,3.75555556 C36.2583333,4.21944444 36.3805556,4.78888889 36.3805556,5.46111111 Z M32.0527778,5.46111111 C32.0527778,6.10277778 32.1666667,6.6 32.3944444,6.95 C32.6222222,7.3 32.9888889,7.475 33.4972222,7.475 C33.9972222,7.475 34.3611111,7.3 34.5944444,6.95 C34.825,6.6 34.9416667,6.10277778 34.9416667,5.46111111 C34.9416667,4.81944444 34.825,4.32777778 34.5944444,3.98333333 C34.3638889,3.64166667 33.9944444,3.46944444 33.4861111,3.46944444 C32.9777778,3.46944444 32.6138889,3.64166667 32.3888889,3.98333333 C32.1638889,4.32777778 32.0527778,4.81944444 32.0527778,5.46111111 Z" id="Shape"></path>
                            <path d="M39.7333333,2.32777778 C40.5166667,2.32777778 41.1166667,2.625 41.5333333,3.22222222 L41.5888889,3.22222222 L41.7222222,2.43888889 L42.8972222,2.43888889 L42.8972222,8.54722222 C42.8972222,9.41111111 42.6555556,10.0694444 42.1694444,10.5166667 C41.6833333,10.9638889 40.9527778,11.1888889 39.9777778,11.1888889 C39.5444444,11.1888889 39.1472222,11.1611111 38.7805556,11.1055556 C38.4138889,11.05 38.0694444,10.9555556 37.7388889,10.8194444 L37.7388889,9.65555556 C38.0833333,9.80555556 38.45,9.91944444 38.8416667,10.0027778 C39.2333333,10.0861111 39.6416667,10.125 40.0666667,10.125 C40.5222222,10.125 40.8722222,9.99722222 41.1194444,9.73888889 C41.3666667,9.48055556 41.4888889,9.10555556 41.4888889,8.61388889 L41.4888889,8.45833333 C41.4888889,8.34722222 41.4916667,8.21666667 41.5,8.06666667 C41.5083333,7.91666667 41.5194444,7.79722222 41.5333333,7.70833333 L41.4888889,7.70833333 C41.2805556,8.02222222 41.025,8.25 40.7222222,8.39722222 C40.4194444,8.54166667 40.0777778,8.61666667 39.6972222,8.61666667 C38.9583333,8.61666667 38.3805556,8.34166667 37.9638889,7.78888889 C37.5472222,7.23611111 37.3361111,6.46944444 37.3361111,5.48333333 C37.3361111,4.5 37.5472222,3.72777778 37.9694444,3.16666667 C38.3944444,2.60833333 38.9805556,2.32777778 39.7333333,2.32777778 Z M40.1027778,3.48055556 C39.2222222,3.48055556 38.7833333,4.15555556 38.7833333,5.50555556 C38.7833333,6.83333333 39.2305556,7.49722222 40.125,7.49722222 C40.6166667,7.49722222 40.9805556,7.36111111 41.2166667,7.08888889 C41.4527778,6.81666667 41.5694444,6.35555556 41.5694444,5.70833333 L41.5694444,5.49444444 C41.5694444,4.77777778 41.4527778,4.26388889 41.2166667,3.95 C40.9805556,3.63611111 40.6111111,3.48055556 40.1027778,3.48055556 Z" id="Shape"></path>
                            <path d="M43.7416667,2.43888889 L45.275,2.43888889 L46.4833333,5.86111111 C46.5638889,6.07777778 46.6333333,6.29166667 46.6833333,6.50555556 C46.7361111,6.71944444 46.7722222,6.92777778 46.7944444,7.13888889 L46.8388889,7.13888889 C46.8694444,6.94444444 46.9138889,6.73888889 46.9722222,6.51666667 C47.0305556,6.29722222 47.1,6.07777778 47.175,5.86111111 L48.3388889,2.43888889 L49.8611111,2.43888889 L47.2777778,9.30833333 C47.0472222,9.91111111 46.7305556,10.3777778 46.3333333,10.7 C45.9333333,11.025 45.4444444,11.1861111 44.8611111,11.1861111 C44.675,11.1861111 44.5111111,11.1777778 44.375,11.1583333 C44.2388889,11.1388889 44.1194444,11.1194444 44.0222222,11.0972222 L44.0222222,9.97777778 C44.1055556,9.99166667 44.2027778,10.0083333 44.3194444,10.0222222 C44.4361111,10.0361111 44.5555556,10.0444444 44.6833333,10.0444444 C45.0277778,10.0444444 45.3027778,9.94166667 45.5111111,9.73611111 C45.7194444,9.53055556 45.8805556,9.275 45.9916667,8.96944444 L46.1694444,8.47777778 L43.7416667,2.43888889 Z" id="Path"></path>
                        </g>
                        <g>
                            <g transform="translate(0.000000, -0.000000)" id="Path">
                                <path d="M0.377777778,31.425 C2.09444444,26.4972222 11.8722222,24.4194444 26.1361111,26.1361111 L28.9,15.9805556 C14.7861111,14.1888889 4.48055556,16.2055556 2.76111111,22.6277778 L0.377777778,31.425 Z" fill="#0095FF"></path>
                                <path d="M51.8944444,20.8583333 C50.1777778,25.7861111 40.4027778,27.8527778 26.1388889,26.1361111 L23.375,36.2916667 C37.4888889,38.0833333 47.7944444,36.0666667 49.5138889,29.6444444 L51.8944444,20.8583333 Z" fill="#0000C9"></path>
                                <path d="M9.41111111,10.1555556 C30.2472222,11.65 51.5305556,21.9555556 49.5138889,29.6472222 L51.3805556,22.7777778 C51.9777778,20.6111111 52.2777778,19.4916667 52.2777778,18.5944444 C52.2777778,10.7527778 31.7416667,1.19444444 12.175,0 L9.41111111,10.1555556 Z" fill="#0095FF"></path>
                                <path d="M42.8666667,42.1166667 C22.0305556,40.6222222 0.747222222,30.3166667 2.76388889,22.625 L0.897222222,29.4944444 C0.3,31.6611111 3.15796771e-14,32.7805556 3.15796771e-14,33.6777778 C3.15796771e-14,41.5194444 20.5361111,51.0777778 40.1027778,52.2722222 L42.8666667,42.1166667 Z" fill="#0000C9"></path>
                            </g>
                            <g transform="translate(55.316667, 12.369444)" fill="#0000C9">
                                <path d="M63.5472222,27.3583333 C60.9111111,27.3916667 59.5055556,25.7138889 59.5055556,22.7361111 C59.5055556,22.5388889 59.5111111,22.3444444 59.5194444,22.1527778 L69.8805556,22.1527778 C70.0861111,21.3638889 70.2222222,20.5083333 70.2222222,19.7222222 C70.2222222,16.0916667 67.9972222,13.3194444 63.4416667,13.3194444 C58.7861111,13.3194444 54.6416667,17.9083333 54.6416667,22.7361111 C54.6416667,27.3583333 57.6555556,30.1666667 62.6888889,30.1666667 C64.9138889,30.1666667 67.1055556,29.4138889 68.6472222,28.25 L67.6888889,25.8527778 C66.4916667,26.7777778 65.0194444,27.325 63.5472222,27.3583333 Z M63.5111111,15.9222222 C65.0527778,15.9222222 65.8388889,16.9138889 65.8388889,19.1055556 C65.8388889,19.3138889 65.825,19.5305556 65.8027778,19.7555556 L59.8916667,19.7555556 C60.5333333,17.4527778 61.9083333,15.9222222 63.5111111,15.9222222 Z" id="Shape"></path>
                                <path d="M22.5277778,12.2944444 C22.5277778,8.52777778 19.5833333,5.78888889 15.1333333,5.78888889 L6.50555556,5.78888889 L0,29.7555556 L5.44444444,29.7555556 L7.84166667,20.9222222 L12.5666667,20.9222222 C17.9722222,20.9222222 22.5277778,17.4305556 22.5277778,12.2944444 Z M10.475,18.1138889 L8.60277778,18.1138889 L11.1861111,8.59444444 L13.1472222,8.59444444 C15.625,8.59444444 17.0166667,10.2722222 17.0166667,12.4972222 C17.0138889,16.0583333 14.2222222,18.1138889 10.475,18.1138889 Z" id="Shape"></path>
                                <path d="M29.6194444,13.7666667 L30.2305556,11.5416667 C30.5388889,10.3777778 31.0527778,8.39166667 31.7722222,6.09722222 C32.525,3.73333333 33.8944444,2.26111111 35.7444444,2.26111111 C36.6333333,2.26111111 37.1833333,2.67222222 37.1833333,3.35555556 C37.15,4.10833333 36.5333333,4.55277778 36.5333333,5.75277778 C36.5333333,7.15555556 37.7305556,8.25277778 39.2722222,8.25277778 C41.1888889,8.25277778 42.7305556,6.71111111 42.7305556,4.82777778 C42.7305556,1.91666667 40.2305556,-3.94745964e-15 36.4305556,-3.94745964e-15 C30.85,-3.94745964e-15 27.1861111,3.56111111 24.8916667,11.8805556 L15.5777778,45.7444444 L20.85,45.7444444 L28.8972222,16.4 L34.3805556,16.4 L30.7777778,29.7527778 L36.05,29.7527778 L40.3638889,13.7638889 L29.6194444,13.7638889 L29.6194444,13.7666667 Z" id="Path"></path>
                                <polygon id="Path" points="56.3222222 13.7666667 42.35 13.7666667 41.6666667 16.4027778 48.4277778 16.4027778 37.9333333 29.7555556 52.725 29.7555556 53.4111111 27.1194444 45.7972222 27.1194444"></polygon>
                                <path d="M83.9888889,13.4916667 C82.1,13.4916667 80.0861111,14.7138889 78.5111111,17.25 L79.4361111,13.7666667 L74.1638889,13.7666667 L69.85,29.7555556 L75.1222222,29.7555556 L77.075,22.5638889 C77.8638889,19.6194444 79.7805556,16.7444444 81.0472222,16.7444444 C82.4166667,16.7444444 81.9027778,19.3111111 84.2666667,19.3111111 C85.9777778,19.3111111 87.0055556,17.7361111 87.0055556,16.2972222 C87,14.6222222 85.6666667,13.4916667 83.9888889,13.4916667 Z" id="Path"></path>
                            </g>
                        </g>
                    </g>
                </g>
            </g>
        </g>
    </g>
</svg>