<?xml version="1.0" encoding="UTF-8"?>
<svg width="195px" height="40px" viewBox="0 0 195 40" version="1.1" xmlns="http://www.w3.org/2000/svg" xmlns:xlink="http://www.w3.org/1999/xlink">
    <title>Group</title>
    <g id="Symbols" stroke="none" stroke-width="1" fill="none" fill-rule="evenodd">
        <g id="Mandatory-ISI-Popup" transform="translate(-66.000000, -1286.000000)" fill-rule="nonzero">
            <g id="MyovantPfizer_Logo_Hori_Color_RGB" transform="translate(51.000000, 1235.000000)">
                <g id="Group" transform="translate(15.991667, 31.991667)">
                    <g transform="translate(0.000000, 19.572222)">
                        <polygon id="Path" fill="#394A59" points="69.3972222 7.89491929e-15 62.1888889 16.1388889 54.9388889 7.89491929e-15 48.6 22.5527778 51.6861111 22.5527778 55.5722222 8.65 62.1944444 23.3861111 68.7972222 8.77222222 72.6333333 22.5527778 75.7333333 22.5527778"></polygon>
                        <polygon id="Path" fill="#394A59" points="75.6722222 0.897222222 78.9472222 0.897222222 84.2638889 9.61666667 89.525 0.897222222 92.8055556 0.897222222 85.7 12.625 85.7 22.5527778 82.7444444 22.5527778 82.7444444 12.6611111"></polygon>
                        <path d="M113.166667,11.7361111 C113.166667,9.35 112.35,7.33611111 110.713889,5.7 C109.077778,4.06388889 107.063889,3.24722222 104.675,3.24722222 C102.402778,3.24722222 100.458333,4.07777778 98.8361111,5.74166667 C97.2166667,7.40833333 96.4055556,9.40555556 96.4055556,11.7361111 C96.4055556,14.1027778 97.2388889,16.1027778 98.9,17.7388889 C100.561111,19.375 102.602778,20.1944444 105.013889,20.1944444 C107.230556,20.1944444 109.144444,19.3583333 110.752778,17.6888889 C112.361111,16.0166667 113.166667,14.0333333 113.166667,11.7361111 M93.4666667,11.6 C93.4666667,8.475 94.5861111,5.79722222 96.8222222,3.56666667 C99.0611111,1.33888889 101.752778,0.222222222 104.897222,0.222222222 C107.963889,0.222222222 110.608333,1.34722222 112.825,3.59444444 C115.041667,5.84166667 116.15,8.51111111 116.15,11.6027778 C116.15,14.875 115.052778,17.6416667 112.863889,19.8972222 C110.672222,22.1583333 107.986111,23.2861111 104.797222,23.2861111 C101.652778,23.2861111 98.9777778,22.1472222 96.7722222,19.8694444 C94.5694444,17.5944444 93.4666667,14.8361111 93.4666667,11.6" id="Shape" fill="#394A59"></path>
                        <polygon id="Path" fill="#394A59" points="116.477778 0.933333333 119.6 0.933333333 126.397222 16.2694444 133.25 0.933333333 136.397222 0.933333333 126.361111 23.2861111"></polygon>
                        <path d="M144.25,6.825 L147.752778,14.5472222 L140.786111,14.5472222 L144.25,6.825 Z M134.119444,22.5527778 L137.194444,22.5527778 L139.680556,17.0111111 L148.869444,17.0111111 L151.383333,22.5527778 L154.483333,22.5527778 L144.258333,0.0666666667 L134.119444,22.5527778 Z" id="Shape" fill="#394A59"></path>
                        <polygon id="Path" fill="#394A59" points="157.727778 22.5527778 160.686111 22.5527778 160.686111 7.17222222 176.697222 23.5555556 176.697222 0.897222222 173.738889 0.897222222 173.738889 16.4916667 157.727778 0.0333333333"></polygon>
                        <polygon id="Path" fill="#394A59" points="180.486111 0.9 180.486111 3.85555556 185.636111 3.85555556 185.636111 22.5527778 188.561111 22.5527778 188.561111 3.85555556 193.725 3.85555556 193.725 0.9"></polygon>
                        <path d="M96.8416667,29.3277778 L95.5777778,30.1611111 C95.0333333,29.4472222 94.3861111,29.0916667 93.6277778,29.0916667 C93.1305556,29.0916667 92.6888889,29.2583333 92.3,29.5916667 C91.9111111,29.925 91.7194444,30.3055556 91.7194444,30.7277778 C91.7194444,31.0888889 91.8555556,31.4055556 92.1305556,31.675 C92.4055556,31.9416667 92.9583333,32.275 93.7916667,32.6638889 C94.625,33.0583333 95.2472222,33.4972222 95.6583333,33.9805556 C96.0666667,34.4638889 96.275,35.0722222 96.275,35.8027778 C96.275,36.675 95.9083333,37.4416667 95.1777778,38.1027778 C94.4472222,38.7638889 93.5916667,39.0916667 92.6138889,39.0916667 C91.825,39.0916667 91.0861111,38.8805556 90.3916667,38.4555556 C89.6972222,38.0305556 89.1972222,37.4611111 88.8916667,36.7472222 L90.2694444,36.1027778 C90.8694444,37.0611111 91.6388889,37.5388889 92.5805556,37.5388889 C93.1416667,37.5388889 93.6388889,37.3583333 94.0722222,36.9916667 C94.5055556,36.6277778 94.7222222,36.2166667 94.7222222,35.7666667 C94.7222222,35.4055556 94.5805556,35.0888889 94.2972222,34.8166667 C94.0138889,34.5444444 93.4583333,34.2194444 92.6333333,33.8333333 C91.8055556,33.45 91.1861111,33.0166667 90.7805556,32.5305556 C90.3722222,32.0444444 90.1666667,31.4444444 90.1666667,30.725 C90.1666667,29.8472222 90.5,29.0972222 91.175,28.4722222 C91.8472222,27.85 92.6583333,27.5361015 93.6083333,27.5361015 C94.975,27.5333333 96.0555556,28.1333333 96.8416667,29.3277778" id="Path" fill="#007A94"></path>
                        <path d="M111.655556,28.8861111 L111.186111,30.5861111 C110.238889,29.5888889 109.155556,29.0888889 107.933333,29.0888889 C106.711111,29.0888889 105.680556,29.5055556 104.85,30.3333333 C104.016667,31.1611111 103.6,32.1777778 103.6,33.3805556 C103.6,34.5388889 103.988889,35.5222222 104.772222,36.3277778 C105.552778,37.1361111 106.508333,37.5388889 107.636111,37.5388889 C108.525,37.5388889 109.472222,37.2555556 110.475,36.6888889 L110.227778,38.4805556 C109.316667,38.8888889 108.469444,39.0916667 107.686111,39.0916667 C106.077778,39.0916667 104.730556,38.55 103.65,37.4666667 C102.566667,36.3833333 102.025,35.0305556 102.025,33.4166667 C102.025,31.7388889 102.6,30.3416667 103.75,29.2194444 C104.9,28.0944444 106.333333,27.5361111 108.05,27.5361111 C109.3,27.5361111 110.5,27.9861111 111.655556,28.8861111" id="Path" fill="#007A94"></path>
                        <polygon id="Path" fill="#007A94" points="118.272222 27.9 116.683333 38.7277778 118.144444 38.7277778 119.733333 27.9"></polygon>
                        <polygon id="Path" fill="#007A94" points="127.044444 27.9 125.422222 38.7277778 130.538889 38.7277778 130.730556 37.2472222 127.130556 37.2472222 127.680556 33.4916667 131.302778 33.4916667 131.516667 32.0472222 127.875 32.0472222 128.288889 29.3444444 131.913889 29.3444444 132.144444 27.9"></polygon>
                        <polygon id="Path" fill="#007A94" points="138.280556 38.7277778 139.722222 38.7277778 140.863889 30.925 147.113889 39.1444444 148.744444 27.9 147.336111 27.9 146.166667 35.6 139.938889 27.3833333"></polygon>
                        <path d="M163.522222,28.8861111 L163.052778,30.5861111 C162.105556,29.5888889 161.022222,29.0888889 159.8,29.0888889 C158.575,29.0888889 157.547222,29.5055556 156.716667,30.3333333 C155.883333,31.1611111 155.466667,32.1777778 155.466667,33.3805556 C155.466667,34.5388889 155.858333,35.5222222 156.638889,36.3277778 C157.419444,37.1361111 158.375,37.5388889 159.502778,37.5388889 C160.391667,37.5388889 161.338889,37.2555556 162.341667,36.6888889 L162.094444,38.4805556 C161.183333,38.8888889 160.336111,39.0916667 159.552778,39.0916667 C157.944444,39.0916667 156.6,38.55 155.516667,37.4666667 C154.436111,36.3833333 153.894444,35.0305556 153.894444,33.4166667 C153.894444,31.7388889 154.469444,30.3416667 155.619444,29.2194444 C156.769444,28.0944444 158.202778,27.5361111 159.919444,27.5361111 C161.163889,27.5361111 162.366667,27.9861111 163.522222,28.8861111" id="Path" fill="#007A94"></path>
                        <polygon id="Path" fill="#007A94" points="170.277778 27.9 168.655556 38.7277778 173.772222 38.7277778 173.963889 37.2472222 170.363889 37.2472222 170.913889 33.4916667 174.536111 33.4916667 174.747222 32.0472222 171.108333 32.0472222 171.522222 29.3444444 175.147222 29.3444444 175.377778 27.9"></polygon>
                        <path d="M188.6,29.3277778 L187.333333,30.1611111 C186.791667,29.4472222 186.141667,29.0916667 185.383333,29.0916667 C184.886111,29.0916667 184.444444,29.2583333 184.055556,29.5916667 C183.666667,29.925 183.475,30.3055556 183.475,30.7277778 C183.475,31.0888889 183.611111,31.4055556 183.886111,31.675 C184.161111,31.9416667 184.716667,32.275 185.547222,32.6638889 C186.380556,33.0583333 187,33.4972222 187.413889,33.9805556 C187.825,34.4638889 188.030556,35.0722222 188.030556,35.8027778 C188.030556,36.675 187.663889,37.4416667 186.933333,38.1027778 C186.202778,38.7638889 185.347222,39.0916667 184.366667,39.0916667 C183.580556,39.0916667 182.838889,38.8805556 182.144444,38.4555556 C181.45,38.0305556 180.95,37.4611111 180.644444,36.7472222 L182.022222,36.1027778 C182.622222,37.0611111 183.391667,37.5388889 184.333333,37.5388889 C184.894444,37.5388889 185.391667,37.3583333 185.825,36.9916667 C186.258333,36.6277778 186.475,36.2166667 186.475,35.7666667 C186.475,35.4055556 186.333333,35.0888889 186.05,34.8166667 C185.766667,34.5444444 185.213889,34.2194444 184.386111,33.8333333 C183.558333,33.45 182.941667,33.0166667 182.533333,32.5305556 C182.125,32.0444444 181.922222,31.4444444 181.922222,30.725 C181.922222,29.8472222 182.255556,29.0972222 182.930556,28.4722222 C183.6,27.85 184.411111,27.5361015 185.363889,27.5361015 C186.733333,27.5333333 187.813889,28.1333333 188.6,29.3277778" id="Path" fill="#007A94"></path>
                        <path d="M23.1666667,27.8888889 L27.9305556,19.6388889 L37.4583333,19.6388889 L42.2222222,27.8888889 L37.4583333,36.1416667 L27.9305556,36.1416667 L23.1666667,27.8888889 Z M26.125,16.5111111 L19.5555556,27.8888889 L26.125,39.2666667 L39.2666667,39.2666667 L45.8361111,27.8888889 L39.2666667,16.5111111 L26.125,16.5111111 L26.125,16.5111111 Z" id="Shape" fill="#FFCB00"></path>
                        <path d="M38.2555556,11.6555556 L42.275,7.31111111 L38.5444444,3.17222222 L27.9527778,3.17222222 L23.3888889,7.12222222 L27.7777778,11.6527778 L38.2555556,11.6527778 L38.2555556,11.6555556 Z M26.5555556,14.3166667 L19.7027778,7.05 L26.7833333,0.494444444 L39.6527778,0.494444444 L46.0194444,7.31111111 L39.2722222,14.3166667 L26.5555556,14.3166667 Z" id="Shape" fill="#007A94"></path>
                        <path d="M3.575,22.9388889 L8.58611111,14.3833333 L17.2638889,11.6416667 L20.8027778,15.6222222 L15.6888889,24.2777778 L7.125,27.075 L3.575,22.9388889 Z M6.61944444,12.0194444 L3.94745964e-15,23.3194444 L6.28333333,30.4388889 L17.5944444,26.6805556 L24.3944444,15.2277778 L18.0555556,8.31388889 L6.61944444,12.0194444 Z" id="Shape" fill="#EA7125"></path>
                    </g>
                </g>
            </g>
        </g>
    </g>
</svg>