<?xml version="1.0" encoding="UTF-8"?>
<svg width="248px" height="273px" viewBox="0 0 248 273" version="1.1" xmlns="http://www.w3.org/2000/svg" xmlns:xlink="http://www.w3.org/1999/xlink">
    <title>stopwatch_countdown</title>
    <defs>
        <path d="M7.056,23.24 C10.128,23.24 13.176,21.944 13.176,18.272 C13.176,11.648 4.608,13.712 4.608,10.64 C4.608,9.32 5.568,8.984 7.128,8.984 C8.688,8.984 9.192,9.872 9.432,10.664 C9.552,11.12 9.792,11.336 10.2,11.336 L12.168,11.336 C12.576,11.336 12.912,11 12.912,10.592 C12.912,8.192 10.92,5.96 7.176,5.96 C3.048,5.96 1.128,7.832 1.128,10.64 C1.128,17.024 9.696,14.936 9.696,18.272 C9.696,19.712 8.928,20.216 7.056,20.216 C4.488,20.216 4.272,18.44 4.176,17.984 C4.104,17.696 3.888,17.336 3.48,17.336 L1.536,17.336 C1.128,17.336 0.792,17.672 0.792,18.08 C0.792,20.336 2.712,23.24 7.056,23.24 Z M25.416,23 C25.824,23 26.16,22.664 26.16,22.256 L26.16,20.456 C26.16,20.048 25.824,19.736 25.416,19.736 L19.032,19.736 L19.032,16.112 L23.976,16.112 C24.384,16.112 24.72,15.776 24.72,15.368 L24.72,13.592 C24.72,13.184 24.384,12.848 23.976,12.848 L19.032,12.848 L19.032,9.464 L25.416,9.464 C25.824,9.464 26.16,9.128 26.16,8.72 L26.16,6.944 C26.16,6.536 25.824,6.2 25.416,6.2 L16.296,6.2 C15.888,6.2 15.552,6.536 15.552,6.944 L15.552,22.256 C15.552,22.664 15.888,23 16.296,23 L25.416,23 Z M34.248,23.24 C38.088,23.24 40.392,20.408 40.608,17.576 C40.632,17.312 40.416,17 40.08,17 L37.608,17 C37.128,17 37.032,17.384 36.984,17.744 C36.864,18.896 36,19.976 34.248,19.976 C32.496,19.976 31.08,18.68 31.08,16.208 L31.08,13.04 C31.08,10.568 32.496,9.224 34.248,9.224 C36,9.224 36.792,10.4 36.984,11.552 C37.056,12.032 37.32,12.2 37.584,12.2 L40.032,12.2 C40.392,12.2 40.584,11.96 40.56,11.6 C40.368,8.696 38.088,5.96 34.248,5.96 C30.408,5.96 27.6,8.792 27.6,12.992 L27.6,16.208 C27.6,20.408 30.408,23.24 34.248,23.24 Z M49.056,23.24 C52.896,23.24 55.752,20.408 55.752,16.208 L55.752,12.968 C55.752,8.768 52.896,5.96 49.056,5.96 C45.216,5.96 42.408,8.768 42.408,12.968 L42.408,16.208 C42.408,20.408 45.216,23.24 49.056,23.24 Z M49.056,19.976 C47.304,19.976 45.888,18.68 45.888,16.208 L45.888,13.016 C45.888,10.544 47.304,9.224 49.056,9.224 C50.808,9.224 52.272,10.544 52.272,13.016 L52.272,16.208 C52.272,18.68 50.808,19.976 49.056,19.976 Z M68.664,23 L70.584,23 C70.992,23 71.328,22.664 71.328,22.256 L71.328,6.944 C71.328,6.536 70.992,6.2 70.584,6.2 L68.688,6.2 C68.28,6.2 67.944,6.536 67.944,6.944 L67.944,16.784 L62.376,6.776 C62.256,6.56 61.92,6.2 61.512,6.2 L58.896,6.2 C58.488,6.2 58.152,6.536 58.152,6.944 L58.152,22.256 C58.152,22.664 58.488,23 58.896,23 L60.792,23 C61.2,23 61.536,22.664 61.536,22.256 L61.536,11.552 L67.512,22.136 C68.04,23.048 68.4,23 68.664,23 Z M80.184,23 C84.048,23 86.952,20.168 86.952,15.968 L86.952,13.208 C86.952,9.008 84.072,6.2 80.184,6.2 L74.952,6.2 C74.544,6.2 74.208,6.536 74.208,6.944 L74.208,22.256 C74.208,22.664 74.544,23 74.952,23 L80.184,23 Z M80.184,19.712 L77.688,19.712 L77.688,9.488 L80.184,9.488 C81.936,9.488 83.4,10.808 83.4,13.256 L83.4,15.968 C83.4,18.416 81.936,19.712 80.184,19.712 Z M94.968,23.24 C98.04,23.24 101.088,21.944 101.088,18.272 C101.088,11.648 92.52,13.712 92.52,10.64 C92.52,9.32 93.48,8.984 95.04,8.984 C96.6,8.984 97.104,9.872 97.344,10.664 C97.464,11.12 97.704,11.336 98.112,11.336 L100.08,11.336 C100.488,11.336 100.824,11 100.824,10.592 C100.824,8.192 98.832,5.96 95.088,5.96 C90.96,5.96 89.04,7.832 89.04,10.64 C89.04,17.024 97.608,14.936 97.608,18.272 C97.608,19.712 96.84,20.216 94.968,20.216 C92.4,20.216 92.184,18.44 92.088,17.984 C92.016,17.696 91.8,17.336 91.392,17.336 L89.448,17.336 C89.04,17.336 88.704,17.672 88.704,18.08 C88.704,20.336 90.624,23.24 94.968,23.24 Z" id="path-1"></path>
        <path d="M12.2922857,46 C12.7002857,46 13.0362857,45.664 13.0362857,45.256 L13.0362857,40.192 L15.6042857,40.192 L18.1962857,45.424 C18.3402857,45.712 18.5802857,46 18.9882857,46 L21.4122857,46 C21.7242857,46 21.9402857,45.784 21.9402857,45.472 C21.9402857,45.232 21.8202857,45.04 21.7002857,44.8 L18.9642857,39.568 C21.1002857,38.824 21.9402857,37.192 21.9402857,34.96 L21.9402857,34.24 C21.9402857,30.88 19.7082857,29.2 16.7562857,29.2 L10.3002857,29.2 C9.8922857,29.2 9.5562857,29.536 9.5562857,29.944 L9.5562857,45.256 C9.5562857,45.664 9.8922857,46 10.3002857,46 L12.2922857,46 Z M16.4682857,36.928 L13.0362857,36.928 L13.0362857,32.464 L16.4682857,32.464 C17.5962857,32.464 18.4602857,33.04 18.4602857,34.552 L18.4602857,34.888 C18.4602857,36.352 17.5962857,36.928 16.4682857,36.928 Z M34.0842857,46 C34.4922857,46 34.8282857,45.664 34.8282857,45.256 L34.8282857,43.456 C34.8282857,43.048 34.4922857,42.736 34.0842857,42.736 L27.7002857,42.736 L27.7002857,39.112 L32.6442857,39.112 C33.0522857,39.112 33.3882857,38.776 33.3882857,38.368 L33.3882857,36.592 C33.3882857,36.184 33.0522857,35.848 32.6442857,35.848 L27.7002857,35.848 L27.7002857,32.464 L34.0842857,32.464 C34.4922857,32.464 34.8282857,32.128 34.8282857,31.72 L34.8282857,29.944 C34.8282857,29.536 34.4922857,29.2 34.0842857,29.2 L24.9642857,29.2 C24.5562857,29.2 24.2202857,29.536 24.2202857,29.944 L24.2202857,45.256 C24.2202857,45.664 24.5562857,46 24.9642857,46 L34.0842857,46 Z M39.6522857,46 C40.0602857,46 40.3962857,45.664 40.3962857,45.256 L40.3962857,34.648 L44.2602857,45.544 C44.3562857,45.832 44.5242857,46 44.8602857,46 L46.6842857,46 C46.9722857,46 47.1882857,45.88 47.3322857,45.496 L51.1002857,34.672 L51.1002857,45.256 C51.1002857,45.664 51.4362857,46 51.8442857,46 L53.6922857,46 C54.1002857,46 54.4362857,45.664 54.4362857,45.256 L54.4362857,29.944 C54.4362857,29.536 54.1002857,29.2 53.6922857,29.2 L50.4042857,29.2 C50.1162857,29.2 49.9482857,29.44 49.8762857,29.608 L45.7962857,41.128 L41.7642857,29.56 C41.6922857,29.392 41.5242857,29.2 41.1882857,29.2 L37.8522857,29.2 C37.4442857,29.2 37.1082857,29.536 37.1082857,29.944 L37.1082857,45.256 C37.1082857,45.664 37.4442857,46 37.8522857,46 L39.6522857,46 Z M58.9482857,46 C59.1402857,46 59.4282857,45.904 59.5242857,45.568 L60.4842857,42.688 L66.7242857,42.688 L67.6842857,45.592 C67.7322857,45.784 67.9242857,46 68.3082857,46 L70.7082857,46 C71.0202857,46 71.2602857,45.784 71.2602857,45.472 C71.2602857,45.304 71.0922857,44.896 71.0682857,44.824 L65.7882857,29.728 C65.7162857,29.512 65.4762857,29.2 65.0682857,29.2 L62.3802857,29.2 C61.9722857,29.2 61.7322857,29.512 61.6602857,29.728 L56.2362857,45.016 C56.1882857,45.16 56.1162857,45.328 56.1162857,45.472 C56.1162857,45.784 56.3562857,46 56.6682857,46 L58.9482857,46 Z M65.7162857,39.568 L61.5402857,39.568 L63.6762857,33.256 L65.7162857,39.568 Z M75.6762857,46 C76.0842857,46 76.4202857,45.664 76.4202857,45.256 L76.4202857,29.944 C76.4202857,29.536 76.0842857,29.2 75.6762857,29.2 L73.6842857,29.2 C73.2762857,29.2 72.9402857,29.536 72.9402857,29.944 L72.9402857,45.256 C72.9402857,45.664 73.2762857,46 73.6842857,46 L75.6762857,46 Z M89.8122857,46 L91.7322857,46 C92.1402857,46 92.4762857,45.664 92.4762857,45.256 L92.4762857,29.944 C92.4762857,29.536 92.1402857,29.2 91.7322857,29.2 L89.8362857,29.2 C89.4282857,29.2 89.0922857,29.536 89.0922857,29.944 L89.0922857,39.784 L83.5242857,29.776 C83.4042857,29.56 83.0682857,29.2 82.6602857,29.2 L80.0442857,29.2 C79.6362857,29.2 79.3002857,29.536 79.3002857,29.944 L79.3002857,45.256 C79.3002857,45.664 79.6362857,46 80.0442857,46 L81.9402857,46 C82.3482857,46 82.6842857,45.664 82.6842857,45.256 L82.6842857,34.552 L88.6602857,45.136 C89.1882857,46.048 89.5482857,46 89.8122857,46 Z" id="path-2"></path>
    </defs>
    <g id="Page-1" stroke="none" stroke-width="1" fill="none" fill-rule="evenodd">
        <g id="stopwatch_countdown" transform="translate(0.952730, 3.453955)" fill-rule="nonzero">
            <polygon id="Fill-10" fill="#9FB6D4" points="100.186234 35.8070409 72.1828956 44.3039086 67.1626139 27.755044 95.1656753 19.2581762"></polygon>
            <path d="M104.701939,19.6101948 L81.6651483,26.5987675 L75.3189582,7.36294913 L98.8263403,0.231995633 C101.663734,-0.630322567 104.692245,0.986835733 105.554764,3.82946653 L108.298815,12.8764673 C109.161334,15.7188211 107.544319,18.7475996 104.701939,19.6101948" id="Fill-12" stroke="#9FB6D4" stroke-width="5" fill="#9FB6D4"></path>
            <path d="M81.6650373,26.5987675 L59.4267823,33.3471763 C56.5846797,34.2100485 53.5561688,32.5876271 52.6936498,29.7499824 L49.9493215,20.7029817 C49.0868024,17.8606279 50.7090805,14.8318494 53.5461975,13.9692541 L75.3188474,7.36294913 L81.6650373,26.5987675 Z" id="Fill-14" stroke="#9FB6D4" stroke-width="5" fill="#9FB6D4"></path>
            <polygon id="Fill-16" fill="#9FB6D4" points="163.566341 40.1807089 148.299422 34.8871332 151.427369 25.8650629 166.694011 31.1589157"></polygon>
            <path d="M162.188887,19.5758462 L158.435239,30.1078736 L146.159716,25.8538996 C144.611115,25.3148468 143.782942,23.6093237 144.317238,22.0605858 L146.027319,17.1254552 C146.566324,15.5767172 148.271697,14.7484707 149.820298,15.2878005 L162.188887,19.5758462 Z" id="Fill-18" stroke="#9FB6D4" stroke-width="4" fill="#9FB6D4"></path>
            <path d="M176.341428,27.6378152 L174.63107,32.5729458 C174.09705,34.1216838 172.391678,34.9499303 170.843077,34.4108776 L158.435156,30.1078736 L162.188804,19.5758462 L174.503658,23.8445014 C176.052259,24.3835542 176.880433,26.0890773 176.341428,27.6378152" id="Fill-20" stroke="#9FB6D4" stroke-width="4" fill="#9FB6D4"></path>
            <path d="M129.595612,157.401502 L146.352966,157.401502 L117.212897,266.674091 C132.132481,267.945269 147.308273,266.383512 162.068317,261.904887 C192.605478,252.639329 217.707718,232.034826 232.748343,203.889679 C244.443868,181.998485 248.968631,157.584879 246.043988,133.449387 C245.208059,126.550564 243.764987,119.672794 241.705356,112.883665 C235.876844,93.6708375 225.560684,76.6089585 211.701383,62.8500935 L171.45105,62.8500935 L129.595612,157.401502 Z" id="Fill-22" fill="#333333" opacity="0.303748721" style="mix-blend-mode: multiply;"></path>
            <path d="M154.211084,264.289129 C123.6742,273.554687 91.3577123,270.373001 63.2139443,255.330216 C35.0696221,240.287153 14.4677711,215.184081 5.20303176,184.644774 C-4.06170764,154.105468 -0.880303238,121.78557 14.1611531,93.6393145 C29.2023324,65.4930595 54.3034637,44.8893875 84.8400713,35.6235524 C115.376678,26.3579943 147.69372,29.5396798 175.837765,44.5824654 C203.981257,59.6249735 224.583385,84.7283235 233.848401,115.26763 C243.112863,145.806936 239.931459,178.126557 224.89028,206.273644 C209.848823,234.419622 184.747969,255.023294 154.211084,264.289129" id="Fill-24" fill="#9FB6D4"></path>
            <path d="M149.920177,250.144783 C123.161314,258.264369 94.8422173,255.476031 70.1801009,242.294169 C45.5177076,229.11203 27.4649133,207.114743 19.3460446,180.353515 C11.2274528,153.592288 14.0149902,125.270965 27.1959647,100.606392 C40.3763853,75.9418185 62.3722819,57.8871525 89.1311453,49.7678428 C115.890007,41.6485336 144.208828,44.4363173 168.870944,57.6184565 C193.533337,70.8003195 211.586686,92.7978825 219.705277,119.559111 C227.823869,146.320338 225.036055,174.641661 211.855357,199.306511 C198.67466,223.970807 176.67904,242.025197 149.920177,250.144783" id="Fill-26" fill="#9FB6D4"></path>
            <path d="M213.026544,121.585545 C228.6937,173.229349 199.533135,227.796946 147.893894,243.465487 C96.2546543,259.134305 41.6918791,229.970608 26.0247226,178.327081 C10.3572892,126.683278 39.5184088,72.1156795 91.1573723,56.4471385 C142.796612,40.7783207 197.359387,69.9417405 213.026544,121.585545" id="Fill-28" fill="#FFFFFF"></path>
            <path d="M97.2385743,76.4924785 C95.3944343,77.0520295 93.4455953,76.0104885 92.8860943,74.1661855 L89.4819963,62.9452455 C88.9224953,61.1009425 89.9639433,59.1519315 91.8083603,58.5923805 C93.6525003,58.0328295 95.6010623,59.0743705 96.1605643,60.9186725 L99.5646613,72.1396135 C100.124163,73.9839155 99.0829913,75.9329265 97.2385743,76.4924785" id="Fill-38" fill-opacity="0.12" fill="#0E0078"></path>
            <path d="M43.7422868,176.598207 L32.5220612,180.002605 C30.6779213,180.562433 28.7290826,179.520615 28.1695808,177.676312 C27.6100791,175.831733 28.6518048,173.882999 30.4956677,173.323447 L41.7158934,169.919049 C43.5600332,169.359221 45.508872,170.401039 46.0683737,172.245342 C46.6278754,174.089645 45.5864266,176.038379 43.7422868,176.598207" id="Fill-40" fill-opacity="0.12" fill="#0E0078"></path>
            <path d="M147.242989,241.320384 C145.398849,241.880212 143.45001,240.838394 142.890509,238.994091 L139.486411,227.772874 C138.92691,225.928571 139.968358,223.979283 141.812498,223.420009 C143.656638,222.860181 145.605477,223.901722 146.164979,225.746302 L149.569076,236.967519 C150.128578,238.811822 149.087129,240.760833 147.242989,241.320384" id="Fill-42" fill-opacity="0.12" fill="#0E0078"></path>
            <path d="M208.555349,126.589373 L197.335124,129.994048 C195.490984,130.553599 193.542145,129.512058 192.982643,127.667478 C192.423142,125.823175 193.464867,123.874164 195.309007,123.314613 L206.529233,119.910215 C208.373373,119.350664 210.321935,120.392205 210.881436,122.236508 C211.440938,124.080811 210.399489,126.029822 208.555349,126.589373" id="Fill-44" fill-opacity="0.12" fill="#0E0078"></path>
            <path d="M61.6067617,97.2543755 C60.8597438,97.4809655 60.0160595,97.3136545 59.4055932,96.7419155 L50.8471556,88.7264825 C49.9372728,87.8741365 49.890186,86.4450655 50.7424567,85.5345485 C51.5958354,84.6243075 53.0242267,84.5777715 53.9341094,85.4301175 L62.4925471,93.4455495 C63.4024299,94.2978955 63.4495167,95.7269665 62.596969,96.6372065 C62.3163871,96.9369265 61.9732076,97.1432965 61.6067617,97.2543755" id="Fill-46" fill-opacity="0.12" fill="#0E0078"></path>
            <path d="M42.0214312,133.89689 C41.6549852,134.007969 41.2550246,134.027359 40.8553409,133.934008 L29.4359659,131.271708 C28.221404,130.988608 27.4666306,129.774493 27.7497052,128.559824 C28.0327799,127.345432 29.2473418,126.590592 30.4613498,126.873414 L41.8804478,129.535714 C43.0950097,129.818814 43.8500601,131.033206 43.5669855,132.247599 C43.3772534,133.062272 42.7681721,133.670299 42.0214312,133.89689" id="Fill-48" fill-opacity="0.12" fill="#0E0078"></path>
            <path d="M57.3108409,219.257863 C56.563823,219.484176 55.7201387,219.317142 55.1093955,218.745125 C54.1995127,217.892502 54.1524259,216.463708 55.0049736,215.553744 L63.0196974,206.99455 C63.8730761,206.084033 65.3014674,206.037219 66.2113502,206.889842 C67.1215099,207.742465 67.1683197,209.17126 66.315772,210.0815 L58.3010482,218.640417 C58.0204664,218.940137 57.6772868,219.146506 57.3108409,219.257863" id="Fill-50" fill-opacity="0.12" fill="#0E0078"></path>
            <path d="M99.2974303,241.70315 C98.9309843,241.814229 98.5310233,241.833897 98.1313393,241.740269 C96.9167773,241.456892 96.1617273,240.243054 96.4448023,239.028385 L99.1068673,227.608 C99.3899413,226.393331 100.603949,225.637383 101.818511,225.921591 C103.032796,226.204967 103.787846,227.418806 103.504772,228.633475 L100.842984,240.053859 C100.653252,240.868532 100.04417,241.47656 99.2974303,241.70315" id="Fill-52" fill-opacity="0.12" fill="#0E0078"></path>
            <path d="M187.318298,214.995107 C186.57128,215.221698 185.727596,215.054664 185.117129,214.482647 L176.558692,206.466938 C175.648809,205.614315 175.601999,204.18552 176.45427,203.274726 C177.306817,202.364486 178.73604,202.317949 179.645923,203.170295 L188.204083,211.186281 C189.113966,212.038904 189.161053,213.467699 188.308782,214.378216 C188.027923,214.677936 187.684744,214.884028 187.318298,214.995107" id="Fill-54" fill-opacity="0.12" fill="#0E0078"></path>
            <path d="M209.755924,173.001733 C209.389201,173.112812 208.989517,173.13248 208.589834,173.038852 L197.170459,170.376552 C195.955897,170.093729 195.201123,168.879614 195.484198,167.664668 C195.767273,166.450275 196.981557,165.69405 198.195842,165.978535 L209.61494,168.640835 C210.829502,168.923658 211.584553,170.137773 211.301478,171.352442 C211.111746,172.167116 210.502665,172.775143 209.755924,173.001733" id="Fill-56" fill-opacity="0.12" fill="#0E0078"></path>
            <path d="M175.041057,93.5350775 C174.294039,93.7616675 173.450355,93.5946335 172.839612,93.0226175 C171.929729,92.1699945 171.882642,90.7409225 172.73519,89.8306825 L180.749914,81.2717655 C181.602461,80.3609715 183.031684,80.3144345 183.941566,81.1673345 C184.851726,82.0199575 184.898536,83.4490285 184.046265,84.3592695 L176.031264,92.9179095 C175.750683,93.2176295 175.407503,93.4239985 175.041057,93.5350775" id="Fill-58" fill-opacity="0.12" fill="#0E0078"></path>
            <path d="M138.399095,73.9535835 C138.032372,74.0646635 137.632688,74.0840535 137.233004,73.9907025 C136.018442,73.7076025 135.263392,72.4934875 135.546467,71.2788185 L138.208255,59.8589885 C138.491329,58.6448725 139.705614,57.8894785 140.920176,58.1723015 C142.134461,58.4556785 142.889234,59.6697935 142.606437,60.8844625 L139.944649,72.3042925 C139.75464,73.1186895 139.145836,73.7269935 138.399095,73.9535835" id="Fill-60" fill-opacity="0.12" fill="#0E0078"></path>
            <g id="SECONDS-REMAIN" transform="translate(63.973134, 152.294620)">
                <g id="SECONDS">
                    <use fill="#000000" xlink:href="#path-1"></use>
                    <use fill="#0E0078" xlink:href="#path-1"></use>
                </g>
                <g id="REMAIN">
                    <use fill="#000000" xlink:href="#path-2"></use>
                    <use fill="#0E0078" xlink:href="#path-2"></use>
                </g>
            </g>
        </g>
    </g>
</svg>