<?xml version="1.0" encoding="UTF-8"?>
<svg width="488px" height="534px" viewBox="0 0 488 534" version="1.1" xmlns="http://www.w3.org/2000/svg" xmlns:xlink="http://www.w3.org/1999/xlink">
    <title>timer-97-second</title>
    <defs>
        <path d="M13.7985238,45.4569048 C19.19,45.4569048 24.8099286,43.1266905 24.8099286,36.5929524 C24.8099286,30.3051651 19.8809986,28.8469843 15.1618104,27.5845448 L14.5853483,27.4306236 C10.4665577,26.3300162 6.67080953,25.2344944 6.67080953,21.0125 C6.67080953,16.8089762 9.595,15.7124048 13.7528333,15.7124048 C19.0529286,15.7124048 20.3779524,18.1796905 20.5607143,20.9668095 C20.6520952,21.4237143 20.8805476,21.6521667 21.3374524,21.6521667 L23.2564524,21.6521667 C23.6676667,21.6521667 24.0331905,21.3323333 24.0331905,20.921119 C24.0331905,17.5400238 21.9314286,12.5597619 13.7528333,12.5597619 C7.58461905,12.5597619 3.19833333,15.1184286 3.19833333,21.0125 C3.19833333,33.5773809 21.3831429,28.0945238 21.3831429,36.5929524 C21.3831429,40.7964762 18.1391191,42.3499524 13.8442143,42.3499524 C7.12771429,42.3499524 5.757,37.6438333 5.71130953,35.6334524 C5.66561905,35.2679286 5.39147619,34.9024048 4.93457143,34.9024048 L2.96988095,34.9024048 C2.51297619,34.9024048 2.19314286,35.2222381 2.19314286,35.6791429 C2.19314286,39.4714524 5.16302381,45.4569048 13.7985238,45.4569048 Z" id="path-1"></path>
        <path d="M49.8146436,45 C50.2715484,45 50.6370722,44.7258571 50.6370722,44.2689524 L50.6370722,42.5327143 C50.6370722,42.1215 50.2715484,41.7559762 49.8146436,41.7559762 L34.3712627,41.7559762 L34.3712627,30.4704286 L46.7533817,30.4704286 C47.2102865,30.4704286 47.5301198,30.1505952 47.5301198,29.6936905 L47.5301198,28.0031429 C47.5301198,27.5462381 47.2102865,27.2264048 46.7533817,27.2264048 L34.3712627,27.2264048 L34.3712627,16.3063809 L49.8146436,16.3063809 C50.2715484,16.3063809 50.6370722,15.9865476 50.6370722,15.5296429 L50.6370722,13.8390952 C50.6370722,13.3821905 50.2715484,13.0166667 49.8146436,13.0166667 L31.6298341,13.0166667 C31.2186198,13.0166667 30.8987865,13.3821905 30.8987865,13.8390952 L30.8987865,44.2689524 C30.8987865,44.7258571 31.2186198,45 31.6298341,45 L49.8146436,45 Z" id="path-2"></path>
        <path d="M65.4071199,45.4569048 C72.032239,45.4569048 76.5099056,40.4766429 76.829739,34.8110238 C76.8754294,34.4911905 76.6012866,34.2627381 76.3271437,34.2627381 L73.9055485,34.2627381 C73.5857151,34.2627381 73.4029532,34.4911905 73.3115723,34.8567143 C72.8089771,39.1973095 69.8847866,42.212881 65.4071199,42.212881 C60.8380723,42.212881 57.1371437,38.8317857 57.1371437,33.0290952 L57.1371437,25.0789524 C57.1371437,19.2305714 60.7923818,15.8494762 65.3614294,15.8494762 C69.8847866,15.8494762 72.6719056,19.0478095 73.2658818,22.7487381 C73.3572628,23.2970238 73.5857151,23.4797857 73.859858,23.4797857 L76.1900723,23.4797857 C76.6012866,23.4797857 76.8754294,23.2970238 76.829739,22.7487381 C76.1443818,17.2201905 71.9865485,12.5597619 65.3614294,12.5597619 C58.6906199,12.5597619 53.618977,17.4029524 53.618977,25.0332619 L53.618977,33.0290952 C53.618977,40.5680238 58.7820009,45.4569048 65.4071199,45.4569048 Z M94.009358,45.4569048 C100.634477,45.4569048 105.70612,40.5680238 105.70612,33.0290952 L105.70612,25.0789524 C105.70612,17.4486429 100.588787,12.5597619 93.9636675,12.5597619 C87.292858,12.5597619 82.2212151,17.4486429 82.2212151,25.0789524 L82.2212151,33.0290952 C82.2212151,40.5680238 87.384239,45.4569048 94.009358,45.4569048 Z M94.009358,42.212881 C89.4403104,42.212881 85.7393818,38.8317857 85.7393818,33.0290952 L85.7393818,25.1246429 C85.7393818,19.2762619 89.3946199,15.8494762 93.9636675,15.8494762 C98.4870247,15.8494762 102.233644,19.2762619 102.233644,25.1246429 L102.233644,33.0290952 C102.233644,38.8317857 98.4870247,42.212881 94.009358,42.212881 Z M115.026977,45 C115.483882,45 115.803715,44.7258571 115.803715,44.2689524 L115.803715,18.8193571 L131.841072,44.131881 C132.343668,45 132.754882,45 133.074715,45 L134.628191,45 C135.085096,45 135.404929,44.7258571 135.404929,44.2689524 L135.404929,13.8390952 C135.404929,13.3821905 135.085096,13.0166667 134.628191,13.0166667 L132.754882,13.0166667 C132.297977,13.0166667 132.023834,13.3821905 132.023834,13.8390952 L132.023834,38.4662619 L116.352001,13.6563333 C116.169239,13.3821905 115.940787,13.0166667 115.438191,13.0166667 L113.153668,13.0166667 C112.742453,13.0166667 112.42262,13.3821905 112.42262,13.8390952 L112.42262,44.2689524 C112.42262,44.7258571 112.742453,45 113.153668,45 L115.026977,45 Z M154.000953,45 C160.626072,45 165.743406,40.1568095 165.743406,32.5721905 L165.743406,25.4444762 C165.743406,17.8598571 160.580382,13.0166667 153.955263,13.0166667 L143.949048,13.0166667 C143.537834,13.0166667 143.218001,13.3821905 143.218001,13.8390952 L143.218001,44.2689524 C143.218001,44.7258571 143.537834,45 143.949048,45 L154.000953,45 Z M154.000953,41.7559762 L146.690477,41.7559762 L146.690477,16.3063809 L153.955263,16.3063809 C158.47862,16.3063809 162.225239,19.6874762 162.225239,25.5358571 L162.225239,32.5721905 C162.225239,38.374881 158.47862,41.7559762 154.000953,41.7559762 Z" id="path-3"></path>
    </defs>
    <g id="Page-1" stroke="none" stroke-width="1" fill="none" fill-rule="evenodd">
        <g id="timer-97-second" transform="translate(0.276034, 1.685669)">
            <g id="Group-4">
                <g id="Group-3" fill-rule="nonzero">
                    <polygon id="Fill-10" fill="#9FB6D4" points="197.625093 70.6295829 142.386342 87.3897008 132.483449 54.7469752 187.721653 37.9868573"></polygon>
                    <path d="M206.532671,38.681216 L161.090819,52.4662135 L148.572468,14.5234572 L194.942597,0.457612674 C200.539576,-1.24331473 206.513548,1.94653884 208.214934,7.55364355 L213.627787,25.3989018 C215.329173,31.0054601 212.139485,36.9797422 206.532671,38.681216" id="Fill-12" stroke="#9FB6D4" stroke-width="3.20634921" fill="#9FB6D4"></path>
                    <path d="M161.0906,52.4662135 L117.223923,65.7774867 C111.617656,67.4795068 105.643684,64.2792718 103.942298,58.6820022 L98.5288985,40.836744 C96.827513,35.2301856 100.027582,29.2559035 105.624015,27.5544297 L148.57225,14.5234572 L161.0906,52.4662135 Z" id="Fill-14" stroke="#9FB6D4" stroke-width="3.20634921" fill="#9FB6D4"></path>
                    <polygon id="Fill-16" fill="#9FB6D4" points="322.647255 79.2566669 292.532077 68.81506 298.702195 51.0189773 328.816826 61.4611307"></polygon>
                    <path d="M319.93012,38.613463 L312.52576,59.3879444 L288.311341,50.9969576 C285.256606,49.933673 283.62297,46.5695195 284.676911,43.5146255 L288.050178,33.7800535 C289.113407,30.7251595 292.477386,29.0914387 295.532121,30.1552696 L319.93012,38.613463 Z" id="Fill-18" stroke="#9FB6D4" stroke-width="3.20634921" fill="#9FB6D4"></path>
                    <path d="M347.847101,54.5157409 L344.473288,64.2503128 C343.419893,67.3052069 340.055914,68.9389277 337.001179,67.8756432 L312.525596,59.3879444 L319.929956,38.613463 L344.221959,47.0334088 C347.276694,48.0966933 348.91033,51.4608469 347.847101,54.5157409" id="Fill-20" stroke="#9FB6D4" stroke-width="3.20634921" fill="#9FB6D4"></path>
                    <path d="M255.637365,310.475317 L288.692541,310.475317 L231.211502,526.016094 C260.641536,528.5235 290.576959,525.442926 319.692286,516.608813 C379.929198,498.332449 429.445306,457.689955 459.114103,402.173499 C482.18443,358.993001 491.109874,310.837031 485.34079,263.229641 C483.691855,249.621675 480.845286,236.055236 476.782504,222.663643 C465.285313,184.766237 444.935891,151.111588 417.597347,123.972152 L338.200453,123.972152 L255.637365,310.475317 Z" id="Fill-22" fill="#333333" opacity="0.303748721" style="mix-blend-mode: multiply;"></path>
                    <path d="M304.193288,521.311743 C243.956922,539.588107 180.210151,533.312215 124.694393,503.640238 C69.1775411,473.967716 28.5387971,424.451768 10.2633824,364.212821 C-8.01203235,303.973873 -1.73646616,240.222699 27.9339693,184.704057 C57.6038584,129.185416 107.117781,88.5445611 167.3536,70.2676509 C227.589419,51.991287 291.337283,58.2671791 346.853588,87.9391555 C402.3688,117.610585 443.008091,167.127079 461.284052,227.366027 C479.55892,287.604974 473.283354,351.355602 443.613465,406.875883 C413.943029,462.393978 364.429654,503.034833 304.193288,521.311743" id="Fill-24" fill="#9FB6D4"></path>
                    <path d="M295.729141,493.411944 C242.945215,509.427872 187.083606,503.927861 138.435675,477.926565 C89.7871976,451.924724 54.176665,408.534957 38.1615687,355.748289 C22.1470187,302.961622 27.6456517,247.097659 53.6461431,198.446655 C79.6455417,149.795651 123.034149,114.182722 175.818075,98.1673406 C228.602001,82.151959 284.463063,87.6508775 333.110994,113.652719 C381.759472,139.654014 417.371097,183.044328 433.385647,235.830995 C449.400197,288.617663 443.901018,344.481626 417.901073,393.133176 C391.901128,441.783634 348.513067,477.396016 295.729141,493.411944" id="Fill-26" fill="#9FB6D4"></path>
                    <path d="M420.211329,239.828147 C451.116006,341.695831 393.594536,449.330714 291.732142,480.236996 C189.869748,511.143825 82.240455,453.618275 51.3357775,351.751137 C20.4305536,249.883453 77.9531167,142.248571 179.814964,111.342288 C281.677358,80.4354594 389.306651,137.960463 420.211329,239.828147" id="Fill-28" fill="#FFFFFF"></path>
                </g>
                <path d="M232.054218,264.207032 C232.054218,261.482707 234.097082,258.758928 237.502038,258.758928 C240.906995,258.758928 242.949859,261.482707 242.949859,264.207032 C242.949859,266.930265 240.906995,269.654043 237.502038,269.654043 C234.097082,269.654043 232.054218,266.930265 232.054218,264.207032 M239.090872,283.72863 C239.090872,286.451862 237.048008,289.176187 233.643051,289.176187 C230.238642,289.176187 228.195777,286.451862 228.195777,283.72863 C228.195777,281.004851 230.238642,278.280526 233.643051,278.280526 C237.048008,278.280526 239.090872,281.004851 239.090872,283.72863 M228.195777,244.684888 C228.195777,241.961109 230.238642,239.236784 233.643051,239.236784 C237.048008,239.236784 239.090872,241.961109 239.090872,244.684888 C239.090872,247.40812 237.048008,250.132992 233.643051,250.132992 C230.238642,250.132992 228.195777,247.40812 228.195777,244.684888 M228.195777,300.299149 C228.195777,303.022928 226.152912,305.747253 222.747956,305.747253 C219.343,305.747253 217.300682,303.022928 217.300682,300.299149 C217.300682,297.574824 219.343,294.851045 222.747956,294.851045 C226.152912,294.851045 228.195777,297.574824 228.195777,300.299149 M217.300682,228.113823 C217.300682,225.390044 219.343,222.665719 222.747956,222.665719 C226.152912,222.665719 228.195777,225.390044 228.195777,228.113823 C228.195777,230.838148 226.152912,233.561926 222.747956,233.561926 C219.343,233.561926 217.300682,230.838148 217.300682,228.113823 M215.484559,314.145889 C215.484559,316.870214 213.441695,319.593993 210.036738,319.593993 C206.632328,319.593993 204.588917,316.870214 204.588917,314.145889 C204.588917,311.42211 206.632328,308.697785 210.036738,308.697785 C213.441695,308.697785 215.484559,311.42211 215.484559,314.145889 M200.729931,216.990861 C200.729931,214.267083 202.773341,211.542757 206.178298,211.542757 C209.582708,211.542757 211.625572,214.267083 211.625572,216.990861 C211.625572,219.715186 209.582708,222.438965 206.178298,222.438965 C202.773341,222.438965 200.729931,219.715186 200.729931,216.990861 M202.546053,327.538575 C202.546053,330.2629 200.503188,332.986679 197.098778,332.986679 C193.693822,332.986679 191.650958,330.2629 191.650958,327.538575 C191.650958,324.815343 193.693822,322.091018 197.098778,322.091018 C200.503188,322.091018 202.546053,324.815343 202.546053,327.538575 M191.8777,315.280751 C191.8777,318.005076 189.835382,320.728855 186.430425,320.728855 C183.025469,320.728855 180.982604,318.005076 180.982604,315.280751 C180.982604,312.556973 183.025469,309.832648 186.430425,309.832648 C189.835382,309.832648 191.8777,312.556973 191.8777,315.280751 M180.982604,213.13222 C180.982604,210.407895 183.025469,207.684116 186.430425,207.684116 C189.835382,207.684116 191.8777,210.407895 191.8777,213.13222 C191.8777,215.855999 189.835382,218.580324 186.430425,218.580324 C183.025469,218.580324 180.982604,215.855999 180.982604,213.13222 M189.608093,340.931261 C189.608093,343.656133 187.565229,346.379365 184.160272,346.379365 C180.755316,346.379365 178.712998,343.656133 178.712998,340.931261 C178.712998,338.208029 180.755316,335.483704 184.160272,335.483704 C187.565229,335.483704 189.608093,338.208029 189.608093,340.931261 M176.669587,354.551247 C176.669587,357.276119 174.626722,359.999351 171.222312,359.999351 C167.817356,359.999351 165.774491,357.276119 165.774491,354.551247 C165.774491,351.828015 167.817356,349.103144 171.222312,349.103144 C174.626722,349.103144 176.669587,351.828015 176.669587,354.551247 M172.130373,311.42211 C172.130373,314.145889 170.086963,316.870214 166.682553,316.870214 C163.277596,316.870214 161.234732,314.145889 161.234732,311.42211 C161.234732,308.697785 163.277596,305.974007 166.682553,305.974007 C170.086963,305.974007 172.130373,308.697785 172.130373,311.42211 M161.234732,216.990861 C161.234732,214.267083 163.277596,211.542757 166.682553,211.542757 C170.086963,211.542757 172.130373,214.267083 172.130373,216.990861 C172.130373,219.715186 170.086963,222.438965 166.682553,222.438965 C163.277596,222.438965 161.234732,219.715186 161.234732,216.990861 M163.504885,368.398534 C163.504885,371.122313 161.46202,373.846638 158.057064,373.846638 C154.652108,373.846638 152.609243,371.122313 152.609243,368.398534 C152.609243,365.674755 154.652108,362.95043 158.057064,362.95043 C161.46202,362.95043 163.504885,365.674755 163.504885,368.398534 M155.560169,300.299149 C155.560169,303.022928 153.517304,305.747253 150.112348,305.747253 C146.707392,305.747253 144.665073,303.022928 144.665073,300.299149 C144.665073,297.574824 146.707392,294.851045 150.112348,294.851045 C153.517304,294.851045 155.560169,297.574824 155.560169,300.299149 M144.665073,228.113823 C144.665073,225.390044 146.707392,222.665719 150.112348,222.665719 C153.517304,222.665719 155.560169,225.390044 155.560169,228.113823 C155.560169,230.838148 153.517304,233.561926 150.112348,233.561926 C146.707392,233.561926 144.665073,230.838148 144.665073,228.113823 M144.665073,283.72863 C144.665073,286.451862 142.621663,289.176187 139.217253,289.176187 C135.812296,289.176187 133.769432,286.451862 133.769432,283.72863 C133.769432,281.004851 135.812296,278.280526 139.217253,278.280526 C142.621663,278.280526 144.665073,281.004851 144.665073,283.72863 M133.769432,244.684888 C133.769432,241.961109 135.812296,239.236784 139.217253,239.236784 C142.621663,239.236784 144.665073,241.961109 144.665073,244.684888 C144.665073,247.40812 142.621663,250.132992 139.217253,250.132992 C135.812296,250.132992 133.769432,247.40812 133.769432,244.684888 M129.910445,264.207032 C129.910445,261.482707 131.953856,258.758928 135.358266,258.758928 C138.763222,258.758928 140.806086,261.482707 140.806086,264.207032 C140.806086,266.930265 138.763222,269.654043 135.358266,269.654043 C131.953856,269.654043 129.910445,266.930265 129.910445,264.207032" id="Fill-30" fill="#0E0078" fill-rule="nonzero"></path>
                <path d="M232.054218,264.207032 C232.054218,261.482707 234.097082,258.758928 237.502038,258.758928 C240.906995,258.758928 242.949859,261.482707 242.949859,264.207032 C242.949859,266.930265 240.906995,269.654043 237.502038,269.654043 C234.097082,269.654043 232.054218,266.930265 232.054218,264.207032 Z M239.090872,283.72863 C239.090872,286.451862 237.048008,289.176187 233.643051,289.176187 C230.238642,289.176187 228.195777,286.451862 228.195777,283.72863 C228.195777,281.004851 230.238642,278.280526 233.643051,278.280526 C237.048008,278.280526 239.090872,281.004851 239.090872,283.72863 Z M228.195777,244.684888 C228.195777,241.961109 230.238642,239.236784 233.643051,239.236784 C237.048008,239.236784 239.090872,241.961109 239.090872,244.684888 C239.090872,247.40812 237.048008,250.132992 233.643051,250.132992 C230.238642,250.132992 228.195777,247.40812 228.195777,244.684888 Z M228.195777,300.299149 C228.195777,303.022928 226.152912,305.747253 222.747956,305.747253 C219.343,305.747253 217.300682,303.022928 217.300682,300.299149 C217.300682,297.574824 219.343,294.851045 222.747956,294.851045 C226.152912,294.851045 228.195777,297.574824 228.195777,300.299149 Z M217.300682,228.113823 C217.300682,225.390044 219.343,222.665719 222.747956,222.665719 C226.152912,222.665719 228.195777,225.390044 228.195777,228.113823 C228.195777,230.838148 226.152912,233.561926 222.747956,233.561926 C219.343,233.561926 217.300682,230.838148 217.300682,228.113823 Z M215.484559,314.145889 C215.484559,316.870214 213.441695,319.593993 210.036738,319.593993 C206.632328,319.593993 204.588917,316.870214 204.588917,314.145889 C204.588917,311.42211 206.632328,308.697785 210.036738,308.697785 C213.441695,308.697785 215.484559,311.42211 215.484559,314.145889 Z M200.729931,216.990861 C200.729931,214.267083 202.773341,211.542757 206.178298,211.542757 C209.582708,211.542757 211.625572,214.267083 211.625572,216.990861 C211.625572,219.715186 209.582708,222.438965 206.178298,222.438965 C202.773341,222.438965 200.729931,219.715186 200.729931,216.990861 Z M202.546053,327.538575 C202.546053,330.2629 200.503188,332.986679 197.098778,332.986679 C193.693822,332.986679 191.650958,330.2629 191.650958,327.538575 C191.650958,324.815343 193.693822,322.091018 197.098778,322.091018 C200.503188,322.091018 202.546053,324.815343 202.546053,327.538575 Z M191.8777,315.280751 C191.8777,318.005076 189.835382,320.728855 186.430425,320.728855 C183.025469,320.728855 180.982604,318.005076 180.982604,315.280751 C180.982604,312.556973 183.025469,309.832648 186.430425,309.832648 C189.835382,309.832648 191.8777,312.556973 191.8777,315.280751 Z M180.982604,213.13222 C180.982604,210.407895 183.025469,207.684116 186.430425,207.684116 C189.835382,207.684116 191.8777,210.407895 191.8777,213.13222 C191.8777,215.855999 189.835382,218.580324 186.430425,218.580324 C183.025469,218.580324 180.982604,215.855999 180.982604,213.13222 Z M189.608093,340.931261 C189.608093,343.656133 187.565229,346.379365 184.160272,346.379365 C180.755316,346.379365 178.712998,343.656133 178.712998,340.931261 C178.712998,338.208029 180.755316,335.483704 184.160272,335.483704 C187.565229,335.483704 189.608093,338.208029 189.608093,340.931261 Z M176.669587,354.551247 C176.669587,357.276119 174.626722,359.999351 171.222312,359.999351 C167.817356,359.999351 165.774491,357.276119 165.774491,354.551247 C165.774491,351.828015 167.817356,349.103144 171.222312,349.103144 C174.626722,349.103144 176.669587,351.828015 176.669587,354.551247 Z M172.130373,311.42211 C172.130373,314.145889 170.086963,316.870214 166.682553,316.870214 C163.277596,316.870214 161.234732,314.145889 161.234732,311.42211 C161.234732,308.697785 163.277596,305.974007 166.682553,305.974007 C170.086963,305.974007 172.130373,308.697785 172.130373,311.42211 Z M161.234732,216.990861 C161.234732,214.267083 163.277596,211.542757 166.682553,211.542757 C170.086963,211.542757 172.130373,214.267083 172.130373,216.990861 C172.130373,219.715186 170.086963,222.438965 166.682553,222.438965 C163.277596,222.438965 161.234732,219.715186 161.234732,216.990861 Z M163.504885,368.398534 C163.504885,371.122313 161.46202,373.846638 158.057064,373.846638 C154.652108,373.846638 152.609243,371.122313 152.609243,368.398534 C152.609243,365.674755 154.652108,362.95043 158.057064,362.95043 C161.46202,362.95043 163.504885,365.674755 163.504885,368.398534 Z M155.560169,300.299149 C155.560169,303.022928 153.517304,305.747253 150.112348,305.747253 C146.707392,305.747253 144.665073,303.022928 144.665073,300.299149 C144.665073,297.574824 146.707392,294.851045 150.112348,294.851045 C153.517304,294.851045 155.560169,297.574824 155.560169,300.299149 Z M144.665073,228.113823 C144.665073,225.390044 146.707392,222.665719 150.112348,222.665719 C153.517304,222.665719 155.560169,225.390044 155.560169,228.113823 C155.560169,230.838148 153.517304,233.561926 150.112348,233.561926 C146.707392,233.561926 144.665073,230.838148 144.665073,228.113823 Z M144.665073,283.72863 C144.665073,286.451862 142.621663,289.176187 139.217253,289.176187 C135.812296,289.176187 133.769432,286.451862 133.769432,283.72863 C133.769432,281.004851 135.812296,278.280526 139.217253,278.280526 C142.621663,278.280526 144.665073,281.004851 144.665073,283.72863 Z M133.769432,244.684888 C133.769432,241.961109 135.812296,239.236784 139.217253,239.236784 C142.621663,239.236784 144.665073,241.961109 144.665073,244.684888 C144.665073,247.40812 142.621663,250.132992 139.217253,250.132992 C135.812296,250.132992 133.769432,247.40812 133.769432,244.684888 Z M129.910445,264.207032 C129.910445,261.482707 131.953856,258.758928 135.358266,258.758928 C138.763222,258.758928 140.806086,261.482707 140.806086,264.207032 C140.806086,266.930265 138.763222,269.654043 135.358266,269.654043 C131.953856,269.654043 129.910445,266.930265 129.910445,264.207032 Z" id="Stroke-32" stroke="#0E0078" stroke-width="6.41269841"></path>
                <path d="M327.840688,216.764053 C327.840688,214.040274 329.883552,211.315949 333.288509,211.315949 C336.693465,211.315949 338.73633,214.040274 338.73633,216.764053 C338.73633,219.487831 336.693465,222.212156 333.288509,222.212156 C329.883552,222.212156 327.840688,219.487831 327.840688,216.764053 M321.485352,233.561872 C321.485352,230.838093 323.52767,228.113768 326.932627,228.113768 C330.337037,228.113768 332.380447,230.838093 332.380447,233.561872 C332.380447,236.286197 330.337037,239.009976 326.932627,239.009976 C323.52767,239.009976 321.485352,236.286197 321.485352,233.561872 M315.12947,250.359691 C315.12947,247.635912 317.172335,244.911587 320.577291,244.911587 C323.982247,244.911587 326.025112,247.635912 326.025112,250.359691 C326.025112,253.084016 323.982247,255.807795 320.577291,255.807795 C317.172335,255.807795 315.12947,253.084016 315.12947,250.359691 M309.000876,216.764053 C309.000876,214.040274 311.043741,211.315949 314.448697,211.315949 C317.853107,211.315949 319.895972,214.040274 319.895972,216.764053 C319.895972,219.487831 317.853107,222.212156 314.448697,222.212156 C311.043741,222.212156 309.000876,219.487831 309.000876,216.764053 M308.774134,267.15751 C308.774134,264.433731 310.816999,261.709406 314.221409,261.709406 C317.626365,261.709406 319.668683,264.433731 319.668683,267.15751 C319.668683,269.881835 317.626365,272.605614 314.221409,272.605614 C310.816999,272.605614 308.774134,269.881835 308.774134,267.15751 M302.19151,284.40993 C302.19151,281.685058 304.234375,278.961826 307.638785,278.961826 C311.043741,278.961826 313.086605,281.685058 313.086605,284.40993 C313.086605,287.133162 311.043741,289.856941 307.638785,289.856941 C304.234375,289.856941 302.19151,287.133162 302.19151,284.40993 M296.06237,300.979902 C296.06237,298.256124 298.105781,295.532891 301.510191,295.532891 C304.915147,295.532891 306.958012,298.256124 306.958012,300.979902 C306.958012,303.704227 304.915147,306.428006 301.510191,306.428006 C298.105781,306.428006 296.06237,303.704227 296.06237,300.979902 M290.161065,216.764053 C290.161065,214.040274 292.20393,211.315949 295.60834,211.315949 C299.013296,211.315949 301.056707,214.040274 301.056707,216.764053 C301.056707,219.487831 299.013296,222.212156 295.60834,222.212156 C292.20393,222.212156 290.161065,219.487831 290.161065,216.764053 M289.707034,317.777721 C289.707034,315.053943 291.749899,312.330164 295.154855,312.330164 C298.559812,312.330164 300.60213,315.053943 300.60213,317.777721 C300.60213,320.502047 298.559812,323.225825 295.154855,323.225825 C291.749899,323.225825 289.707034,320.502047 289.707034,317.777721 M283.578441,334.575541 C283.578441,331.851762 285.621305,329.127983 289.026262,329.127983 C292.430672,329.127983 294.473536,331.851762 294.473536,334.575541 C294.473536,337.299866 292.430672,340.023098 289.026262,340.023098 C285.621305,340.023098 283.578441,337.299866 283.578441,334.575541 M276.995817,351.601206 C276.995817,348.876881 279.038681,346.152556 282.443638,346.152556 C285.848594,346.152556 287.890912,348.876881 287.890912,351.601206 C287.890912,354.324439 285.848594,357.04931 282.443638,357.04931 C279.038681,357.04931 276.995817,354.324439 276.995817,351.601206 M271.321254,216.764053 C271.321254,214.040274 273.363572,211.315949 276.769075,211.315949 C280.173485,211.315949 282.216349,214.040274 282.216349,216.764053 C282.216349,219.487831 280.173485,222.212156 276.769075,222.212156 C273.363572,222.212156 271.321254,219.487831 271.321254,216.764053 M270.867223,368.398479 C270.867223,365.674701 272.910088,362.950375 276.315044,362.950375 C279.719454,362.950375 281.762865,365.674701 281.762865,368.398479 C281.762865,371.122258 279.719454,373.846583 276.315044,373.846583 C272.910088,373.846583 270.867223,371.122258 270.867223,368.398479 M252.481442,216.764053 C252.481442,214.040274 254.524307,211.315949 257.928717,211.315949 C261.333673,211.315949 263.377084,214.040274 263.377084,216.764053 C263.377084,219.487831 261.333673,222.212156 257.928717,222.212156 C254.524307,222.212156 252.481442,219.487831 252.481442,216.764053" id="Fill-34" fill="#0E0078" fill-rule="nonzero"></path>
                <path d="M327.840688,216.764053 C327.840688,214.040274 329.883552,211.315949 333.288509,211.315949 C336.693465,211.315949 338.73633,214.040274 338.73633,216.764053 C338.73633,219.487831 336.693465,222.212156 333.288509,222.212156 C329.883552,222.212156 327.840688,219.487831 327.840688,216.764053 Z M321.485352,233.561872 C321.485352,230.838093 323.52767,228.113768 326.932627,228.113768 C330.337037,228.113768 332.380447,230.838093 332.380447,233.561872 C332.380447,236.286197 330.337037,239.009976 326.932627,239.009976 C323.52767,239.009976 321.485352,236.286197 321.485352,233.561872 Z M315.12947,250.359691 C315.12947,247.635912 317.172335,244.911587 320.577291,244.911587 C323.982247,244.911587 326.025112,247.635912 326.025112,250.359691 C326.025112,253.084016 323.982247,255.807795 320.577291,255.807795 C317.172335,255.807795 315.12947,253.084016 315.12947,250.359691 Z M309.000876,216.764053 C309.000876,214.040274 311.043741,211.315949 314.448697,211.315949 C317.853107,211.315949 319.895972,214.040274 319.895972,216.764053 C319.895972,219.487831 317.853107,222.212156 314.448697,222.212156 C311.043741,222.212156 309.000876,219.487831 309.000876,216.764053 Z M308.774134,267.15751 C308.774134,264.433731 310.816999,261.709406 314.221409,261.709406 C317.626365,261.709406 319.668683,264.433731 319.668683,267.15751 C319.668683,269.881835 317.626365,272.605614 314.221409,272.605614 C310.816999,272.605614 308.774134,269.881835 308.774134,267.15751 Z M302.19151,284.40993 C302.19151,281.685058 304.234375,278.961826 307.638785,278.961826 C311.043741,278.961826 313.086605,281.685058 313.086605,284.40993 C313.086605,287.133162 311.043741,289.856941 307.638785,289.856941 C304.234375,289.856941 302.19151,287.133162 302.19151,284.40993 Z M296.06237,300.979902 C296.06237,298.256124 298.105781,295.532891 301.510191,295.532891 C304.915147,295.532891 306.958012,298.256124 306.958012,300.979902 C306.958012,303.704227 304.915147,306.428006 301.510191,306.428006 C298.105781,306.428006 296.06237,303.704227 296.06237,300.979902 Z M290.161065,216.764053 C290.161065,214.040274 292.20393,211.315949 295.60834,211.315949 C299.013296,211.315949 301.056707,214.040274 301.056707,216.764053 C301.056707,219.487831 299.013296,222.212156 295.60834,222.212156 C292.20393,222.212156 290.161065,219.487831 290.161065,216.764053 Z M289.707034,317.777721 C289.707034,315.053943 291.749899,312.330164 295.154855,312.330164 C298.559812,312.330164 300.60213,315.053943 300.60213,317.777721 C300.60213,320.502047 298.559812,323.225825 295.154855,323.225825 C291.749899,323.225825 289.707034,320.502047 289.707034,317.777721 Z M283.578441,334.575541 C283.578441,331.851762 285.621305,329.127983 289.026262,329.127983 C292.430672,329.127983 294.473536,331.851762 294.473536,334.575541 C294.473536,337.299866 292.430672,340.023098 289.026262,340.023098 C285.621305,340.023098 283.578441,337.299866 283.578441,334.575541 Z M276.995817,351.601206 C276.995817,348.876881 279.038681,346.152556 282.443638,346.152556 C285.848594,346.152556 287.890912,348.876881 287.890912,351.601206 C287.890912,354.324439 285.848594,357.04931 282.443638,357.04931 C279.038681,357.04931 276.995817,354.324439 276.995817,351.601206 Z M271.321254,216.764053 C271.321254,214.040274 273.363572,211.315949 276.769075,211.315949 C280.173485,211.315949 282.216349,214.040274 282.216349,216.764053 C282.216349,219.487831 280.173485,222.212156 276.769075,222.212156 C273.363572,222.212156 271.321254,219.487831 271.321254,216.764053 Z M270.867223,368.398479 C270.867223,365.674701 272.910088,362.950375 276.315044,362.950375 C279.719454,362.950375 281.762865,365.674701 281.762865,368.398479 C281.762865,371.122258 279.719454,373.846583 276.315044,373.846583 C272.910088,373.846583 270.867223,371.122258 270.867223,368.398479 Z M252.481442,216.764053 C252.481442,214.040274 254.524307,211.315949 257.928717,211.315949 C261.333673,211.315949 263.377084,214.040274 263.377084,216.764053 C263.377084,219.487831 261.333673,222.212156 257.928717,222.212156 C254.524307,222.212156 252.481442,219.487831 252.481442,216.764053 Z" id="Stroke-36" stroke="#0E0078" stroke-width="6.41269841"></path>
                <g id="Group-2" transform="translate(54.621143, 114.628137)" fill="#0E0078" fill-rule="nonzero">
                    <path d="M137.189463,36.2536924 C133.551755,37.3574102 129.70752,35.3029652 128.603859,31.6650678 L121.889014,9.53170226 C120.785354,5.89380486 122.839692,2.04937017 126.477947,0.945652427 C130.115655,-0.158065319 133.959344,1.8963796 135.063004,5.534277 L141.777849,27.6676426 C142.88151,31.30554 140.827718,35.1499747 137.189463,36.2536924" id="Fill-38"></path>
                    <path d="M31.6638998,233.712786 L9.53113726,240.42798 C5.89342877,241.532244 2.04919373,239.477252 0.945533296,235.839355 C-0.158127134,232.200911 1.89675746,228.357023 5.53391958,227.253305 L27.6666821,220.538112 C31.3043906,219.433847 35.1486257,221.488839 36.2522861,225.126736 C37.3559465,228.764634 35.3016083,232.608522 31.6638998,233.712786" id="Fill-40"></path>
                    <path d="M235.827038,361.377632 C232.189329,362.481896 228.345094,360.426905 227.241434,356.789008 L220.526589,334.655096 C219.422929,331.017198 221.477267,327.172217 225.114975,326.069046 C228.752684,324.964782 232.596919,327.019226 233.700579,330.65767 L240.415424,352.791582 C241.519085,356.42948 239.464746,360.273914 235.827038,361.377632" id="Fill-42"></path>
                    <path d="M356.770409,135.070089 L334.637647,141.785829 C330.999938,142.889546 327.155703,140.835101 326.052043,137.196658 C324.948383,133.55876 327.003267,129.714326 330.640976,128.610608 L352.773738,121.895414 C356.411447,120.791696 360.255135,122.846141 361.358796,126.484039 C362.462456,130.121936 360.408118,133.966371 356.770409,135.070089" id="Fill-44"></path>
                    <path d="M66.9029578,77.2066476 C65.4294072,77.6535987 63.7651747,77.3235762 62.5609828,76.195817 L45.6788028,60.3853335 C43.8839887,58.7040763 43.7911064,55.8852249 45.4722763,54.0892248 C47.1556316,52.2937711 49.9732439,52.2019767 51.768058,53.8832339 L68.650238,69.6937174 C70.4450522,71.3749746 70.5379345,74.193826 68.8562182,75.9892798 C68.3027489,76.5804791 67.6258008,76.9875433 66.9029578,77.2066476" id="Fill-46"></path>
                    <path d="M28.2693791,149.484205 C27.5465361,149.70331 26.7575828,149.741557 25.9691759,149.557422 L3.4435758,144.306021 C1.04775848,143.747605 -0.441090371,141.352756 0.117296243,138.956814 C0.675682857,136.561419 3.07150018,135.072493 5.46622477,135.630362 L27.9912785,140.881764 C30.3870958,141.440179 31.876491,143.835575 31.3181044,146.23097 C30.9438433,147.837917 29.7423833,149.037254 28.2693791,149.484205" id="Fill-48"></path>
                    <path d="M58.4289219,317.859189 C56.9553713,318.305593 55.2911388,317.976117 54.0864006,316.847812 C52.2915865,315.166008 52.1987041,312.347703 53.8804204,310.552796 L69.6900829,293.669739 C71.3734382,291.873739 74.1910505,291.781398 75.9858646,293.463202 C77.7812251,295.145005 77.873561,297.96331 76.1918448,299.758764 L60.3821823,316.641274 C59.828713,317.232474 59.1517648,317.639538 58.4289219,317.859189" id="Fill-50"></path>
                    <path d="M141.250715,362.132641 C140.527872,362.351745 139.738919,362.390539 138.950512,362.205858 C136.554694,361.646896 135.065299,359.252593 135.623686,356.856651 L140.874815,334.329881 C141.433201,331.93394 143.827926,330.442828 146.223743,331.003429 C148.619014,331.562391 150.108409,333.956694 149.550023,336.352635 L144.29944,358.879405 C143.925179,360.486353 142.723719,361.68569 141.250715,362.132641" id="Fill-52"></path>
                    <path d="M314.878683,309.450881 C313.405133,309.897832 311.7409,309.568356 310.536708,308.440051 L293.654528,292.629021 C291.859714,290.947217 291.767378,288.128912 293.448548,286.332366 C295.130264,284.536912 297.949516,284.445118 299.74433,286.126375 L316.625963,301.937951 C318.420777,303.619755 318.51366,306.43806 316.83249,308.23406 C316.278474,308.825259 315.601526,309.231777 314.878683,309.450881" id="Fill-54"></path>
                    <path d="M359.138635,226.618722 C358.415246,226.837826 357.626839,226.87662 356.838432,226.691939 L334.312832,221.440537 C331.917015,220.882668 330.428166,218.487819 330.986552,216.091331 C331.544939,213.695936 333.94021,212.204278 336.335481,212.765425 L358.860535,218.016827 C361.256352,218.574696 362.745747,220.969545 362.187361,223.365487 C361.8131,224.972434 360.61164,226.171771 359.138635,226.618722" id="Fill-56"></path>
                    <path d="M290.660877,69.8703123 C289.187326,70.3172633 287.523093,69.9877872 286.318355,68.8594817 C284.523541,67.1776781 284.430659,64.3588267 286.112375,62.563373 L301.922037,45.6808626 C303.603754,43.8843161 306.423005,43.7925217 308.217819,45.4748717 C310.01318,47.1566753 310.105516,49.9755267 308.424346,51.7709804 L292.614137,68.6529444 C292.060668,69.2441437 291.383719,69.6512079 290.660877,69.8703123" id="Fill-58"></path>
                    <path d="M218.381772,31.2457097 C217.658383,31.4648141 216.869976,31.5030617 216.081569,31.3189267 C213.685752,30.760511 212.196357,28.3656621 212.754743,25.9697204 L218.005326,3.44404322 C218.563713,1.04919427 220.958983,-0.440824692 223.354801,0.117044525 C225.750072,0.676006532 227.238921,3.07085548 226.68108,5.46679723 L221.430498,27.9924744 C221.05569,29.5988754 219.854777,30.7987587 218.381772,31.2457097" id="Fill-60"></path>
                </g>
            </g>
            <g id="SECOND" transform="translate(149.237541, 377.401283)" fill-rule="nonzero">
                <g id="S">
                    <use fill="#000000" xlink:href="#path-1"></use>
                    <use fill="#0E0078" xlink:href="#path-1"></use>
                </g>
                <g id="E">
                    <use fill="#000000" xlink:href="#path-2"></use>
                    <use fill="#0E0078" xlink:href="#path-2"></use>
                </g>
                <g id="COND">
                    <use fill="#000000" xlink:href="#path-3"></use>
                    <use fill="#0E0078" xlink:href="#path-3"></use>
                </g>
            </g>
        </g>
    </g>
</svg>